<?xml version="1.0" encoding="utf-8"?>
<!-- Generator: Adobe Illustrator 16.0.0, SVG Export Plug-In . SVG Version: 6.00 Build 0)  -->
<!DOCTYPE svg PUBLIC "-//W3C//DTD SVG 1.1//EN" "http://www.w3.org/Graphics/SVG/1.1/DTD/svg11.dtd">
<svg version="1.1" id="Layer_1" xmlns="http://www.w3.org/2000/svg" xmlns:xlink="http://www.w3.org/1999/xlink" x="0px" y="0px"
	 width="1024px" height="768px" viewBox="0 0 1024 768" enable-background="new 0 0 1024 768" xml:space="preserve">
<g>
	<g>
		<path fill="#1b6197" d="M881.416,307.228c-1.461,0.304-36.155,7.511-65.46,16.295c-39.212,11.752-61.701,36.504-61.701,67.9v141.729h-99.267
			c-24.517,0-44.463,19.945-44.463,44.463v184.319h24.25V577.614c0-11.145,9.066-20.211,20.211-20.211h123.521V391.424
			c0-27.284,27.826-39.698,44.412-44.67c16.853-5.05,36.017-9.658,48.826-12.574v235.556c0,28.974-23.572,52.548-52.548,52.548
			H684.943l-17.526,139.654h24.054l14.812-115.402H819.2c42.347,0,76.8-34.454,76.8-76.8V304.211L881.416,307.228z"/>
	</g>
</g>
<g>
	<g>
		<path fill="#1b6197" d="M825.673,117.834h-0.014c-37.896,0-68.888,30.124-70.278,67.686L721.46,263.35h33.873v40.42h67.1
			c40.564,0,73.565-33.001,73.565-73.566V188.16C895.998,149.382,864.449,117.834,825.673,117.834z M871.746,230.205
			c0,27.192-22.123,49.314-49.313,49.314h-42.846v-40.422h-21.101l21.101-48.408v-2.527c0-25.405,20.668-46.074,46.073-46.074h0.014
			c25.406,0,46.074,20.668,46.074,46.074v42.043H871.746z"/>
	</g>
</g>
<g>
	<g>
		<path fill="#1b6197" d="M369.011,533.153h-99.267V391.424c0-31.397-22.488-56.146-61.701-67.9c-29.306-8.783-63.998-15.991-65.46-16.294
			L128,304.211v265.524c0,42.346,34.454,76.8,76.8,76.8h112.918l14.81,115.402h24.054l-17.526-139.654H204.8
			c-28.976,0-52.548-23.574-52.548-52.548V334.18c12.804,2.912,31.962,7.52,48.826,12.574c16.586,4.973,44.412,17.387,44.412,44.67
			v165.981h123.521c11.145,0,20.211,9.065,20.211,20.211v184.319h24.252V577.616C413.474,553.099,393.526,533.153,369.011,533.153z"
			/>
	</g>
</g>
<g>
	<g>
		<path fill="#1b6197" d="M268.617,185.52c-1.392-37.562-32.382-67.686-70.278-67.686h-0.014c-38.776,0-70.326,31.548-70.326,70.326v42.045
			c0,40.564,33.001,73.566,73.566,73.566h67.099v-40.42h33.873L268.617,185.52z M244.412,239.097v40.42h-42.846
			c-27.19,0-49.314-22.122-49.314-49.314v-42.045c0-25.405,20.668-46.074,46.074-46.074h0.014c25.405,0,46.074,20.669,46.074,46.074
			v2.527l21.101,48.41h-21.102V239.097z"/>
	</g>
</g>
<g>
	<g>
		<path fill="#1b6197" d="M309.894,410.273v72.757h170.17v278.905h24.252V483.03h24.252v278.905h24.252V483.03h161.281v-72.757H309.894z
			 M689.851,458.778H334.147v-24.252h355.705v24.252H689.851z"/>
	</g>
</g>
<g>
	<g>
		<path fill="#1b6197" d="M676.108,132.297v-61.56H608.2V6.063H325.254v61.56l-58.772,71.829h58.774V192h50.661v-24.252h-26.407V115.2h-31.845
			l31.845-38.919V30.315h234.442v40.42H393.162v185.937h282.947v-52.548h58.774L676.108,132.297z M651.856,179.874v52.548H417.414
			V192h190.787v-81.436h-24.252v57.184H417.414V94.989h234.441v45.966l31.846,38.919H651.856z"/>
	</g>
</g>
<g>
	<g>
		<g>
			<rect fill="#1b6197" x="431.966" y="322.963" width="24.252" height="24.252"/>
			<rect fill="#1b6197" x="499.873" y="322.963" width="24.252" height="24.252"/>
			<rect fill="#1b6197" x="567.779" y="322.963" width="24.252" height="24.252"/>
		</g>
	</g>
</g>
</svg>
