<?xml version="1.0" encoding="utf-8"?>
<!-- Generator: Adobe Illustrator 16.0.0, SVG Export Plug-In . SVG Version: 6.00 Build 0)  -->
<!DOCTYPE svg PUBLIC "-//W3C//DTD SVG 1.1//EN" "http://www.w3.org/Graphics/SVG/1.1/DTD/svg11.dtd">
<svg version="1.1" id="Layer_1" xmlns="http://www.w3.org/2000/svg" xmlns:xlink="http://www.w3.org/1999/xlink" x="0px" y="0px"
	 width="1024px" height="768px" viewBox="0 0 1024 768" enable-background="new 0 0 1024 768" xml:space="preserve">
<g>
	<g>
		<g>
			<path fill="#1b6197" d="M302.472,402.581c-12.635,0-24.501,6.726-30.968,17.527l-18.643,31.079l-0.991-1.981v-38.239l40.271-16.115
				c13.155-5.253,21.665-17.801,21.665-31.972c0-11.074-5.376-21.517-14.344-27.982c-8.993-6.454-20.612-8.188-31.092-4.657
				l-4.385,1.474l5.004-10.009c5.004-10.021,7.655-21.231,7.655-32.417c0-19.497-15.855-35.353-35.353-35.353
				c-13.477,0-25.58,7.482-31.625,19.547l-30.807,61.626l-25.839,126.979l-0.248,163.461l9.724,49.548H128v86.71h185.807v-86.71
				h-37.162v-82.956l22.693-34.04l33.742-89.038c3.654-9.749,5.5-19.969,5.5-30.373
				C338.581,418.783,322.378,402.581,302.472,402.581z M276.286,353.714c2.973-0.991,6.156-0.521,8.72,1.313
				c2.564,1.834,4.026,4.695,4.026,7.854c0,3.977-2.378,7.481-6.07,8.969l-31.091,12.437v-22.359L276.286,353.714z M289.032,699.871
				v37.161H152.774v-37.161H289.032z M309.88,460.354l-31.934,85.186l-26.075,39.094v90.463h-64.165l-10.158-50.774v-158.58
				l24.205-121.034l30.076-60.127c1.796-3.629,5.426-5.872,9.464-5.872c5.822,0,10.579,4.757,10.579,10.579
				c0,7.358-1.747,14.741-5.042,21.355l-19.733,39.466v104.955l23.783,47.566l41.869-69.776c2.031-3.394,5.76-5.5,9.724-5.5
				c6.255,0,11.334,5.079,11.334,11.335C313.807,446.121,312.493,453.417,309.88,460.354z"/>
			<path fill="#1b6197" d="M861.563,675.097l9.427-47.12l0.235-163.461l-25.021-126.299l-31.872-64.734c-6.033-12.065-18.147-19.547-31.624-19.547
				c-19.498,0-35.354,15.855-35.354,35.353c0,11.173,2.651,22.396,7.655,32.43l4.992,9.983l-4.373-1.474
				c-10.467-3.543-22.098-1.796-31.091,4.657c-8.969,6.479-14.345,16.921-14.345,27.995c0,14.184,8.51,26.719,21.652,31.972
				l40.283,16.115v38.239l-0.991,1.981l-18.643-31.066c-6.466-10.814-18.333-17.54-30.968-17.54
				c-19.905,0-36.108,16.202-36.108,36.108c0,10.404,1.846,20.624,5.5,30.373l32.442,86.511l23.993,36.567v82.956h-37.161v86.71H896
				v-86.71H861.563z M741.025,371.849c-3.68-1.487-6.058-4.992-6.058-8.969c0-3.158,1.462-6.008,4.025-7.854
				c2.564-1.846,5.724-2.316,8.721-1.313l24.415,8.212v22.359L741.025,371.849z M746.066,545.54l-31.934-85.186
				c-2.626-6.938-3.939-14.233-3.939-21.665c0-6.256,5.079-11.335,11.334-11.335c3.964,0,7.692,2.106,9.725,5.5l41.868,69.765
				l23.783-47.566V350.097l-19.732-39.453c-3.295-6.602-5.042-13.998-5.042-21.355c0-5.822,4.757-10.579,10.579-10.579
				c4.025,0,7.655,2.242,9.463,5.859l30.076,60.126l24.204,121.047v158.592l-10.157,50.763h-64.165v-90.463L746.066,545.54z
				 M871.226,737.032H734.968v-37.161h136.258V737.032z"/>
			<path fill="#1b6197" d="M668.561,229.161h29.246v-74.322h-29.246c-3.951-16.797-10.504-32.64-19.56-47.27l20.662-20.674L617.117,34.35
				l-20.687,20.649c-14.642-9.055-30.473-15.607-47.27-19.559V6.193h-74.322v29.246c-16.797,3.952-32.641,10.504-47.27,19.559
				l-20.674-20.662L354.35,86.883l20.662,20.674c-9.055,14.642-15.608,30.472-19.56,47.269h-29.258v74.323h29.246
				c3.952,16.797,10.504,32.64,19.559,47.269l-20.662,20.674l52.546,52.546l18.978-18.978c-0.148,1.251-0.384,2.478-0.384,3.766
				c0,11.024,5.821,20.637,14.505,26.137c-1.313,3.443-2.118,7.135-2.118,11.024c0,17.082,13.886,30.968,30.968,30.968h86.71
				c17.081,0,30.968-13.886,30.968-30.968c0-3.901-0.806-7.593-2.118-11.024c8.683-5.487,14.505-15.112,14.505-26.137
				c0-1.14-0.211-2.229-0.335-3.332l18.544,18.544l52.546-52.546l-20.661-20.674C658.057,261.801,664.597,245.958,668.561,229.161z
				 M555.553,377.807h-86.709c-3.407,0-6.194-2.787-6.194-6.193c0-3.407,2.787-6.194,6.194-6.194h86.709
				c3.406,0,6.193,2.787,6.193,6.194C561.746,375.02,558.959,377.807,555.553,377.807z M567.94,340.646h-12.388h-86.709h-12.388
				c-3.406,0-6.193-2.787-6.193-6.194c0-3.406,2.787-6.193,6.193-6.193H567.94c3.406,0,6.193,2.787,6.193,6.193
				C574.134,337.858,571.347,340.646,567.94,340.646z M524.585,226.882c14.382-5.128,24.774-18.754,24.774-34.882
				c0-20.488-16.673-37.161-37.161-37.161S475.037,171.512,475.037,192c0,16.128,10.393,29.754,24.774,34.882v76.602h-24.774
				v-32.888l-6.182-3.58c-26.743-15.496-43.367-44.234-43.367-75.016c0-47.802,38.908-86.709,86.71-86.709
				s86.71,38.908,86.71,86.709c0,30.77-16.624,59.52-43.367,75.016l-6.182,3.58v32.888h-24.774V226.882z M512.198,204.387
				c-6.838,0-12.387-5.549-12.387-12.387s5.549-12.387,12.387-12.387s12.387,5.549,12.387,12.387S519.036,204.387,512.198,204.387z
				 M646.202,214.718c-3.432,20.439-11.248,39.329-23.214,56.126l-6.069,8.522l17.713,17.738l-17.515,17.516l-17.738-17.739
				l-8.535,6.082c-2.267,1.61-4.744,3.221-7.395,4.819c-2.862-1.672-5.959-3.01-9.315-3.691v-19.51
				c30.732-20.6,49.548-55.444,49.548-92.606c0-61.477-50.006-111.484-111.483-111.484s-111.484,50.007-111.484,111.484
				c0,37.149,18.816,71.994,49.549,92.594v19.522c-3.432,0.694-6.59,2.068-9.514,3.803c-2.7-1.635-5.252-3.27-7.58-4.93
				l-8.535-6.082l-17.738,17.739l-17.515-17.516l17.713-17.738l-6.069-8.522c-11.966-16.797-19.783-35.687-23.214-56.126
				l-1.759-10.331h-25.084v-24.774h25.084l1.747-10.331c3.431-20.439,11.248-39.329,23.213-56.126l6.069-8.522l-17.713-17.738
				l17.515-17.516l17.738,17.714l8.522-6.07c16.797-11.966,35.688-19.782,56.126-23.213l10.344-1.759V30.968h24.773v25.084
				l10.331,1.747c20.438,3.431,39.329,11.248,56.126,23.213l8.522,6.069l17.738-17.713l17.516,17.516l-17.714,17.738l6.069,8.522
				c11.967,16.797,19.782,35.688,23.214,56.126l1.759,10.343h25.084v24.774h-25.084L646.202,214.718z"/>
			<rect fill="#1b6197" x="499.613" y="427.354" width="24.773" height="24.774"/>
			<rect fill="#1b6197" x="499.613" y="476.903" width="24.773" height="24.774"/>
			<rect fill="#1b6197" x="499.613" y="526.451" width="24.773" height="24.774"/>
			<rect fill="#1b6197" x="499.613" y="576" width="24.773" height="24.774"/>
		</g>
	</g>
</g>
</svg>
