<?xml version="1.0" encoding="utf-8"?>
<!-- Generator: Adobe Illustrator 16.0.0, SVG Export Plug-In . SVG Version: 6.00 Build 0)  -->
<!DOCTYPE svg PUBLIC "-//W3C//DTD SVG 1.1//EN" "http://www.w3.org/Graphics/SVG/1.1/DTD/svg11.dtd">
<svg version="1.1" id="Layer_1" xmlns="http://www.w3.org/2000/svg" xmlns:xlink="http://www.w3.org/1999/xlink" x="0px" y="0px"
	 width="862.805px" height="524.131px" viewBox="0 0 862.805 524.131" enable-background="new 0 0 862.805 524.131"
	 xml:space="preserve">
<g>
	<path opacity="0.7" fill="none" stroke="#FFFFFF" stroke-width="2" stroke-miterlimit="10" d="M136.244,489.563
		c0,2.797-2.268,5.065-5.068,5.065H87.905c-2.793,0-5.064-2.269-5.064-5.065l0,0c0-2.797,2.271-5.064,5.064-5.064h43.271
		C133.977,484.498,136.244,486.766,136.244,489.563L136.244,489.563z"/>
	<g id="Data_5_">
		<path fill="none" stroke="#FFFFFF" stroke-width="2" stroke-miterlimit="10" d="M674.256,506.557l-1.543-2.004
			c-1.324,1.104-3.029,1.775-4.891,1.775c-0.914,0-1.786-0.165-2.596-0.456l-0.686,2.441c1.029,0.353,2.133,0.544,3.281,0.544
			C670.264,508.857,672.503,507.995,674.256,506.557z"/>
		<path fill="none" stroke="#FFFFFF" stroke-width="2" stroke-miterlimit="10" d="M672.713,504.553l1.543,2.004
			c2.273-1.862,3.723-4.693,3.723-7.856c0-1.343-0.26-2.625-0.732-3.799l-2.48,0.631c0.439,0.963,0.685,2.035,0.685,3.168
			C675.45,501.052,674.387,503.15,672.713,504.553z"/>
		<path fill="none" stroke="#FFFFFF" stroke-width="2" stroke-miterlimit="10" d="M664.402,491.879l-1.01-2.323
			c-3.389,1.644-5.729,5.117-5.729,9.145c0,4.46,2.876,8.249,6.877,9.613l0.686-2.441c-2.936-1.064-5.033-3.872-5.033-7.172
			C660.193,495.714,661.905,493.13,664.402,491.879z"/>
		<path fill="none" stroke="#FFFFFF" stroke-width="2" stroke-miterlimit="10" d="M667.822,491.067c3.083,0,5.738,1.83,6.943,4.465
			l2.48-0.631c-1.504-3.729-5.156-6.363-9.424-6.363c-1.588,0-3.089,0.365-4.43,1.018l1.01,2.323
			C665.43,491.358,666.591,491.067,667.822,491.067z"/>
	</g>
	<g>
		<path fill-rule="evenodd" clip-rule="evenodd" fill="none" stroke="#FFFFFF" stroke-width="2" stroke-miterlimit="10" d="
			M738.352,449.429c0,15.472-12.548,28.011-28.018,28.011h-560.24c-15.475,0-28.014-12.539-28.014-28.011V102.776
			c0-15.471,12.539-28.01,28.014-28.01h560.24c15.47,0,28.018,12.539,28.018,28.01V449.429z"/>
		
			<rect x="149.615" y="101.33" fill-rule="evenodd" clip-rule="evenodd" fill="none" stroke="#FFFFFF" stroke-width="2" stroke-miterlimit="10" width="563.578" height="347.989"/>
		<path fill-rule="evenodd" clip-rule="evenodd" fill="none" stroke="#FFFFFF" stroke-width="2" stroke-miterlimit="10" d="
			M1.564,475.401C1.205,477.882,1,480.441,1,483.058c0,22.139,13.432,40.073,29.992,40.073H831.82
			c16.563,0,29.984-17.935,29.984-40.073c0-2.616-0.196-5.176-0.561-7.656H1.564z"/>
		<path opacity="0.1" fill="none" stroke="#FFFFFF" stroke-width="2" stroke-miterlimit="10" d="M3.579,499.271
			c4.662,14.048,15.171,23.86,27.413,23.86H831.82c12.248,0,22.756-9.813,27.418-23.86H3.579z"/>
		
			<rect x="178.818" y="133.923" fill="none" stroke="#FFFFFF" stroke-width="2" stroke-miterlimit="10" width="141.105" height="7.016"/>
		
			<rect x="178.818" y="154.971" fill="none" stroke="#FFFFFF" stroke-width="2" stroke-miterlimit="10" width="141.105" height="7.017"/>
		
			<rect x="178.818" y="174.464" fill="none" stroke="#FFFFFF" stroke-width="2" stroke-miterlimit="10" width="141.105" height="7.016"/>
		
			<rect x="178.818" y="355.588" fill="none" stroke="#FFFFFF" stroke-width="2" stroke-miterlimit="10" width="141.105" height="7.017"/>
		
			<rect x="178.818" y="332.462" fill="none" stroke="#FFFFFF" stroke-width="2" stroke-miterlimit="10" width="141.105" height="7.016"/>
		
			<rect x="178.818" y="379.489" fill="none" stroke="#FFFFFF" stroke-width="2" stroke-miterlimit="10" width="141.105" height="7.016"/>
		
			<rect x="347.211" y="218.899" fill="none" stroke="#FFFFFF" stroke-width="2" stroke-miterlimit="10" width="141.101" height="7.016"/>
		
			<rect x="198.307" y="218.899" fill="none" stroke="#FFFFFF" stroke-width="2" stroke-miterlimit="10" width="141.105" height="7.016"/>
		
			<rect x="198.307" y="238.392" fill="none" stroke="#FFFFFF" stroke-width="2" stroke-miterlimit="10" width="141.105" height="7.016"/>
		
			<rect x="347.211" y="238.392" fill="none" stroke="#FFFFFF" stroke-width="2" stroke-miterlimit="10" width="66.262" height="7.016"/>
		
			<rect x="198.307" y="276.104" fill="none" stroke="#FFFFFF" stroke-width="2" stroke-miterlimit="10" width="141.105" height="7.017"/>
		
			<rect x="347.211" y="276.104" fill="none" stroke="#FFFFFF" stroke-width="2" stroke-miterlimit="10" width="66.262" height="7.017"/>
		
			<rect x="515.603" y="257.101" fill="none" stroke="#FFFFFF" stroke-width="2" stroke-miterlimit="10" width="66.259" height="7.016"/>
		
			<rect x="198.307" y="196.294" fill="none" stroke="#FFFFFF" stroke-width="2" stroke-miterlimit="10" width="304.82" height="7.017"/>
		
			<rect x="198.307" y="257.101" fill="none" stroke="#FFFFFF" stroke-width="2" stroke-miterlimit="10" width="304.82" height="7.016"/>
		
			<rect x="515.603" y="298.415" fill="none" stroke="#FFFFFF" stroke-width="2" stroke-miterlimit="10" width="66.259" height="7.017"/>
		
			<rect x="198.307" y="298.415" fill="none" stroke="#FFFFFF" stroke-width="2" stroke-miterlimit="10" width="304.82" height="7.017"/>
		
			<rect x="496.109" y="398.981" fill="none" stroke="#FFFFFF" stroke-width="2" stroke-miterlimit="10" width="66.268" height="7.016"/>
		
			<rect x="178.818" y="398.981" fill="none" stroke="#FFFFFF" stroke-width="2" stroke-miterlimit="10" width="304.816" height="7.016"/>
		<path opacity="0.4" fill="none" stroke="#FFFFFF" stroke-width="2" stroke-miterlimit="10" d="M439.605,87.93
			c0,4.527-3.67,8.21-8.201,8.21s-8.205-3.683-8.205-8.21s3.674-8.201,8.205-8.201S439.605,83.402,439.605,87.93z"/>
		<path fill-rule="evenodd" clip-rule="evenodd" fill="none" stroke="#FFFFFF" stroke-width="2" stroke-miterlimit="10" d="
			M575.807,122.639H158.52c-3.037,0-5.5-2.462-5.5-5.5v-5.589c0-3.037,2.463-5.5,5.5-5.5h417.287c3.038,0,5.5,2.463,5.5,5.5v5.589
			C581.307,120.177,578.845,122.639,575.807,122.639z"/>
		<g opacity="0.5">
			<path fill="none" stroke="#FFFFFF" stroke-width="2" stroke-miterlimit="10" d="M491.447,354.979l7.893-7.889v2.277l-6.648,6.47
				v0.063l6.648,6.469v2.278l-7.893-7.889V354.979z"/>
		</g>
		<g id="Data_7_">
			<path fill="none" stroke="#FFFFFF" stroke-width="2" stroke-miterlimit="10" d="M582.386,373.428l-4.122-5.364
				c-3.541,2.963-8.102,4.748-13.077,4.748c-2.435,0-4.772-0.43-6.938-1.215l-1.834,6.523c2.754,0.941,5.703,1.447,8.772,1.447
				C571.715,379.567,577.702,377.267,582.386,373.428z"/>
			<path fill="none" stroke="#FFFFFF" stroke-width="2" stroke-miterlimit="10" d="M578.264,368.063l4.122,5.364
				c6.077-4.98,9.954-12.54,9.954-21.009c0-3.589-0.695-7.013-1.961-10.148l-6.635,1.685c1.18,2.579,1.835,5.441,1.835,8.464
				C585.579,358.7,582.734,364.325,578.264,368.063z"/>
			<path fill="none" stroke="#FFFFFF" stroke-width="2" stroke-miterlimit="10" d="M556.043,334.185l-2.691-6.213
				c-9.066,4.401-15.316,13.691-15.316,24.447c0,11.924,7.688,22.055,18.379,25.701l1.834-6.523
				c-7.846-2.84-13.454-10.354-13.454-19.178C544.794,344.442,549.373,337.54,556.043,334.185z"/>
			<path fill="none" stroke="#FFFFFF" stroke-width="2" stroke-miterlimit="10" d="M565.187,332.021
				c8.245,0,15.344,4.895,18.558,11.935l6.635-1.685c-4.017-9.971-13.781-17.006-25.192-17.006c-4.241,0-8.259,0.973-11.835,2.707
				l2.691,6.213C558.793,332.802,561.897,332.021,565.187,332.021z"/>
		</g>
		<g id="Data_6_">
			<path fill="none" stroke="#FFFFFF" stroke-width="2" stroke-miterlimit="10" d="M640.272,370.944l-2.716-3.533
				c-2.331,1.949-5.335,3.127-8.613,3.127c-1.604,0-3.143-0.283-4.568-0.8l-1.209,4.297c1.815,0.616,3.758,0.954,5.777,0.954
				C633.244,374.989,637.187,373.474,640.272,370.944z"/>
			<path fill="none" stroke="#FFFFFF" stroke-width="2" stroke-miterlimit="10" d="M637.557,367.411l2.716,3.533
				c4.001-3.277,6.554-8.259,6.554-13.837c0-2.365-0.457-4.616-1.29-6.684l-4.369,1.109c0.776,1.698,1.208,3.583,1.208,5.574
				C642.375,361.247,640.501,364.945,637.557,367.411z"/>
			<path fill="none" stroke="#FFFFFF" stroke-width="2" stroke-miterlimit="10" d="M622.922,345.101l-1.771-4.095
				c-5.971,2.899-10.088,9.021-10.088,16.102c0,7.852,5.064,14.526,12.104,16.928l1.209-4.297c-5.168-1.871-8.861-6.82-8.861-12.631
				C615.514,351.853,618.528,347.306,622.922,345.101z"/>
			<path fill="none" stroke="#FFFFFF" stroke-width="2" stroke-miterlimit="10" d="M628.943,343.676
				c5.431,0,10.105,3.219,12.224,7.857l4.369-1.109c-2.646-6.565-9.075-11.199-16.593-11.199c-2.793,0-5.439,0.64-7.793,1.781
				l1.771,4.095C624.734,344.188,626.779,343.676,628.943,343.676z"/>
		</g>
		<g>
			<g id="Globe_8_">
				<path fill="none" stroke="#FFFFFF" stroke-width="2" stroke-miterlimit="10" d="M689.034,170.976
					c0,7.612-6.171,13.785-13.786,13.785c-7.609,0-13.781-6.173-13.781-13.785c0-7.613,6.172-13.782,13.781-13.782
					C682.863,157.193,689.034,163.362,689.034,170.976z"/>
				<path fill="none" stroke="#FFFFFF" stroke-width="2" stroke-miterlimit="10" d="M683.188,177.962
					c-0.088,0-0.191-0.164-0.305-0.27c-0.113-0.104-0.721,0.027-0.865,0.027c-0.146,0-0.221-0.061-0.355-0.145
					c-0.133-0.081-0.279,0.017-0.383,0.04c-0.104,0.024-0.15-0.067-0.088-0.185c0.064-0.115-0.215-0.088-0.424-0.047
					c-0.208,0.04-0.127,0.147-0.295,0.087c-0.168-0.057,0.196-0.249,0.318-0.394c0.121-0.144-0.023-0.39-0.092-0.414
					c-0.07-0.022-0.205-0.231-0.414-0.396c-0.207-0.161-0.364-0.04-0.615-0.04c-0.248,0-0.307-0.108-0.424-0.196
					c-0.115-0.087-0.082-0.262-0.545-0.504c-0.467-0.245-0.267-0.11-0.24-0.157c0.031-0.048,0.076-0.041-0.085-0.118
					c-0.163-0.074-0.298,0.088-0.46,0.151c-0.164,0.063-0.36,0.047-0.43,0.029c-0.068-0.016-0.15-0.184-0.231-0.221
					c-0.083-0.034-0.151-0.111-0.204-0.192c-0.052-0.081-0.221-0.043-0.215,0.104c0.006,0.151-0.08,0.238-0.244,0.303
					c-0.162,0.064-0.094-0.178-0.094-0.256c0-0.074,0.146-0.151,0.158-0.266c0.012-0.118-0.145,0.111-0.296,0.272
					c-0.151,0.162-0.257,0.011-0.548,0.041c-0.287,0.03-0.15,0.329-0.15,0.497c0,0.171-0.243,0.229-0.285,0.188
					c-0.041-0.04-0.041-0.135-0.129-0.135c-0.085,0-0.108-0.138-0.132-0.192c-0.023-0.05-0.317-0.104-0.429,0.105
					c-0.111,0.208-0.227,0.039-0.361,0c-0.133-0.041-0.395-0.565-0.336-0.656c0.057-0.094,0.057-0.135-0.006-0.198
					c-0.064-0.063-0.035-0.111,0.018-0.208c0.052-0.098,0.191-0.192-0.088-0.37c-0.279-0.183-0.715-0.027-0.946-0.048
					c-0.231-0.022-0.048-0.191,0-0.238c0.046-0.047,0.14-0.208,0.185-0.35c0.047-0.138-0.04-0.151,0.041-0.336
					c0.082-0.186,0.059-0.313-0.127-0.326c-0.186-0.011-0.361,0.127-0.373,0.396c-0.01,0.266-0.277,0.256-0.895,0.209
					c-0.615-0.048-0.556-0.535-0.627-0.932c-0.068-0.394,0.128-0.73,0.14-0.928c0.013-0.199,0.256-0.418,0.487-0.592
					c0.232-0.175,0.563-0.131,0.563-0.131s0.448,0.094,0.587,0.083c0.141-0.013,0.025-0.117,0.035-0.255
					c0.012-0.138,0.686-0.047,0.802-0.047s0.093,0.094,0.221,0.219c0.13,0.128,0.106-0.125,0.231-0.102
					c0.128,0.02,0.023,0.104,0.211,0.406c0.184,0.3,0.15,0.408,0.208,0.663c0.06,0.255,0.187,0.128,0.268-0.081
					c0.081-0.212-0.093-0.885-0.14-1.234c-0.045-0.346,0.268-0.218,0.57-0.544c0.302-0.326,0.615-0.351,0.754-0.582
					c0.141-0.231-0.012-0.615,0.069-0.406c0.083,0.208,0.094-0.081,0.106-0.303c0.012-0.222,0.127-0.313,0.184-0.186
					c0.06,0.128,0.129,0.034,0.176-0.185c0.047-0.222,0.244-0.447,0.338-0.558c0.091-0.11,0.277-0.007,0.533,0
					c0.256,0.003,0.012-0.048-0.064-0.303s0.163-0.343,0.262-0.343c0.098,0,0.521-0.229,0.616-0.287
					c0.092-0.057,0.215-0.05,0.376,0.072c0.165,0.12-0.149,0.029-0.254,0.207c-0.105,0.182,0.15,0.206,0.262,0.044
					c0.108-0.165,0.353-0.087,0.563-0.298c0.209-0.21-0.236-0.132-0.336-0.162c-0.102-0.03-0.16-0.272-0.152-0.354
					c0.011-0.078-0.062-0.275-0.164-0.362c-0.105-0.088-0.377,0.006-0.61,0.104c-0.235,0.095-0.304,0.181-0.288,0.067
					c0.018-0.11,0.409-0.373,0.514-0.391c0.104-0.016,0.402-0.141,0.541-0.295c0.14-0.158,0.539,0.022,0.723,0.043
					c0.184,0.018,0.444,0.121,0.54-0.01s0.175-0.131,0.366-0.154c0.191-0.03,0.226-0.307,0.096-0.431
					c-0.131-0.121-0.322-0.565-0.594-0.706c-0.269-0.138-0.164-0.226-0.076-0.34c0.087-0.111-0.273-0.389-0.391-0.682
					c-0.115-0.29,0.012-0.36-0.127-0.371c-0.139-0.01-0.046,0.209-0.117,0.407c-0.068,0.195-0.361,0.091-0.404,0.081
					c-0.047-0.014-0.211-0.209-0.199-0.394s0.058-0.35,0-0.407c-0.059-0.061-0.186-0.013-0.256-0.084
					c-0.068-0.066-0.162-0.279-0.267-0.37c-0.104-0.093-0.338-0.032-0.499-0.07c-0.163-0.033-0.314,0.024-0.279,0.128
					s0.012,0.246-0.047,0.619c-0.059,0.369-0.175,0.171-0.266,0.266c-0.094,0.094,0.057,0.113,0.139,0.379
					c0.08,0.27-0.105,0.469-0.186,0.549c-0.081,0.081-0.35,0.138-0.523,0.198c-0.175,0.058,0.01,0.279,0.035,0.464
					c0.021,0.186-0.15,0.453-0.245,0.487c-0.093,0.038-0.394-0.347-0.417-0.568s0.186-0.464,0.093-0.534
					c-0.093-0.071-0.452-0.071-0.79-0.35c-0.338-0.279-0.743-0.43-0.883-0.763c-0.139-0.341,0.14-0.644,0.256-0.885
					c0.115-0.245,0.348-0.212,0.719-0.35c0.372-0.138,0.141-0.267,0.232-0.267c0.094,0,0.396-0.047,0.466-0.141
					s0.231-0.184,0.384-0.266c0.15-0.084,0.186-0.245,0.243-0.34c0.06-0.091,0.222,0.129,0.407,0.108
					c0.186-0.027,0.174,0.033,0.43-0.084c0.256-0.115,0.033-0.186,0.012-0.313c-0.023-0.127,0.162-0.094,0.104-0.232
					c-0.06-0.137-0.314-0.278-0.483-0.255c-0.168,0.024,0.053,0.185-0.12,0.351c-0.175,0.161-0.142,0.265-0.198,0.288
					c-0.059,0.024-0.314-0.057-0.314-0.138c0-0.08,0.116-0.15,0.163-0.188c0.048-0.034-0.036-0.209-0.058-0.266
					c-0.025-0.058-0.127,0.07-0.15,0.184c-0.024,0.119-0.152,0.129-0.118,0.023c0.035-0.104-0.093-0.23-0.185-0.359
					c-0.093-0.128,0.092-0.117,0.197-0.279c0.105-0.16,0.07-0.231-0.07-0.313c-0.139-0.083-0.303,0.048-0.464,0.22
					c-0.164,0.174-0.105,0.164-0.046,0.383c0.059,0.222,0,0,0.035,0.212c0.033,0.205-0.27,0.185-0.27,0.185s-0.15-0.014-0.209-0.034
					c-0.057-0.023,0-0.107-0.126-0.15c-0.128-0.047-0.187,0.161-0.187,0.161s-0.35-0.011-0.489-0.011
					c-0.138,0-0.337-0.07-0.37-0.131c-0.035-0.057-0.21-0.174-0.361-0.174c-0.15,0-0.208,0.131-0.208,0.281
					c0,0.148-0.256,0.162-0.244,0.091c0.011-0.067-0.035-0.312-0.035-0.312l-0.14,0.08c0,0-0.383-0.023-0.511-0.033
					c-0.128-0.014-0.081-0.176-0.081-0.176l0.254-0.022l0.035-0.058c0,0-0.068-0.07-0.139-0.094
					c-0.069-0.024-0.371-0.081-0.371-0.081l-0.096-0.128c0,0-0.137,0-0.195,0s-0.15,0.114-0.197,0.114s-0.047-0.124-0.047-0.124
					l0.023-0.108c0,0,0,0-0.116,0.062c-0.114,0.057-0.161,0.01-0.161,0.01l0.047-0.114l0.01-0.131c0,0-0.068-0.081-0.068-0.021
					c0,0.057-0.116,0.185-0.223,0.172c-0.104-0.011-0.174,0.094-0.324,0.061c-0.151-0.038-0.441,0.07-0.604,0.208
					c-0.163,0.138-0.27,0.185-0.233,0.023c0.033-0.161-0.452-0.141-0.534-0.175c-0.082-0.033-0.29-0.057-0.488-0.081
					c-0.196-0.023-0.244-0.188-0.244-0.188l-0.08-0.286c-1.016,0.555-1.953,1.23-2.795,2.014c0.115,0.205,0.227,0.396,0.262,0.424
					c0.08,0.057,0.162,0,0.162,0s-0.325,0.219-0.849,0.684c-0.522,0.46-0.346,0.514-0.346,0.685c0,0.175,0.103,0.107,0.103,0.107
					s-0.405,0.417-0.523,0.531c-0.115,0.118-0.324,0.28-0.324,0.28l-0.209,0.254l0.094,0.038l1.262-1.06c0,0,0.08-0.02,0.088-0.064
					c0.008-0.043,0.078-0.191,0.104-0.197c0.027-0.01,0.141-0.192,0.141-0.192s0.078-0.037,0.174-0.124
					c0.096-0.088,0.191-0.219,0.271-0.226c0.077-0.01,0,0.114-0.141,0.226c-0.139,0.114-0.305,0.359-0.305,0.359
					s0.461-0.245,0.617-0.35c0.159-0.104,0.105-0.262,0.168-0.268c0.06-0.011,0.197,0.12,0.243,0.251
					c0.044,0.131,0.096-0.027,0.329,0c0.236,0.023,0.08,0.209,0.166,0.329c0.088,0.121,0.088,0.158,0.313,0.104
					c0.228-0.05-0.086,0.487-0.086,0.487l-0.016,0.176c0,0,0.086,0.124,0.086,0.137c0,0.021-0.105,0.333-0.105,0.333h0.176
					c0,0-0.07,0.088-0.156,0.142c-0.088,0.05,0.016,0.191,0.102,0.26c0.09,0.07,0,0-0.121,0.282c-0.121,0.274,0,0.188,0.141,0.38
					c0.14,0.191,0.225,0.279,0.331,0.402c0.104,0.122,0,0.4-0.106,0.418c-0.102,0.017-0.33-0.158-0.33-0.158
					c0.018,2.616-0.156,0.874-0.242,1.1c-0.088,0.225-0.209,0.346-0.209,0.487c0,0.141,0,0.35-0.139,0.541
					c-0.141,0.192-0.02,0.626,0,0.68c0.016,0.05,0.125,0.278,0.125,0.278s0,0.481,0,0.713c0,0.232,0.419,0.35,0.559,0.549
					c0.141,0.194,0.105,0.578,0.115,0.642c0.013,0.063,0.1,0.223,0.18,0.296c0.083,0.078,0.09,0.205,0.152,0.322
					c0.063,0.115-0.098,0.074-0.116,0.226c-0.017,0.151,0.145,0.158,0.231,0.192c0.088,0.033,0.176,0.087,0.13,0.248
					c-0.048,0.162-0.024,0.104,0.062,0.199c0.088,0.091,0.048,0.033,0.094,0.208c0.047,0.175,0.164,0.097,0.164,0.097
					s0,0.078,0,0.107c0,0.027,0.104,0.059,0.104,0.059l0.068-0.104c0,0-0.052-0.024-0.052-0.04c0-0.021-0.012-0.104-0.012-0.104
					l-0.158-0.067c0,0-0.021-0.084-0.021-0.121c0-0.033,0-0.128,0-0.151c0-0.021-0.057-0.04-0.057-0.04s-0.008-0.154-0.008-0.249
					s-0.15-0.182-0.158-0.222c-0.005-0.041-0.016-0.176-0.074-0.264c-0.059-0.083-0.197-0.271-0.191-0.467
					c0.006-0.197-0.047-0.325,0.029-0.325s0.203,0.191,0.236,0.225c0.035,0.037,0.008,0.27,0.153,0.484
					c0.145,0.212,0.521,0.655,0.485,0.689s-0.131,0.023-0.078,0.154c0.054,0.128,0.178,0.162,0.273,0.185
					c0.096,0.027,0.252,0.559,0.358,0.734c0.104,0.174-0.026,0.174-0.052,0.284c-0.025,0.115,0.008,0.176,0.184,0.253
					c0.174,0.08,0.137,0.272,0.339,0.333c0.2,0.06,0.592,0.316,0.696,0.339c0.105,0.024,0.094,0.118,0.233,0.132
					c0.14,0.011,0.161,0.054,0.231,0.101s0.314-0.047,0.36-0.08c0.046-0.034,0.093-0.023,0.22,0c0.13,0.023,0.502,0.416,0.617,0.534
					c0.116,0.118,0.209-0.048,0.301,0c0.094,0.047,0.268,0.151,0.337,0.138c0.07-0.01,0.07-0.067,0.117-0.067
					c0.048,0,0.012,0.094,0.185,0.313c0.176,0.222,0.141,0.266,0.141,0.303c0,0.033,0.082,0.207,0.198,0.184
					s0.231,0.102,0.231,0.102v0.188c0,0,0.395,0.022,0.476,0.047c0.081,0.023,0.095,0.198,0.128,0.222
					c0.035,0.024,0.176-0.141,0.152-0.232c-0.024-0.094,0.15-0.137,0.219-0.208c0.071-0.07,0.164,0.081,0.223,0.151
					c0.057,0.067,0.186,0.242,0.186,0.384c0,0.138-0.011,0.346-0.011,0.567c0,0.22-0.175,0.326-0.303,0.475
					c-0.128,0.154-0.245,0.222-0.303,0.292c-0.06,0.071-0.104,0.29-0.081,0.417c0.021,0.128,0.188,0.014,0.188,0.165
					s-0.152,0.07-0.326,0.208c-0.176,0.138,0.023,0.151,0.082,0.27c0.057,0.114-0.082,0.02-0.082,0.161
					c0,0.138,0.209,0.114,0.406,0.175c0.197,0.057,0.406,0.568,0.523,0.834c0.115,0.27,0.231,0.502,0.348,0.549
					c0.115,0.047,0.128,0.146,0.371,0.207c0.244,0.059,0.436,0.25,0.574,0.25c0.136,0,0.133,0.235,0.087,0.333
					c-0.042,0.094-0.007,0.121,0.026,0.47c0.035,0.348-0.076,1.13-0.113,1.218c-0.037,0.087-0.027,0.07,0.037,0.134
					c0.063,0.064-0.105,0.344-0.111,0.431c-0.006,0.088-0.168,0.138-0.202,0.222c-0.033,0.081,0.079,0.081,0.103,0.155
					s-0.045,0.263,0.023,0.333c0.07,0.066,0.135,0.047,0.153,0.154c0.017,0.111-0.065,0.215-0.182,0.215s-0.116,0.125-0.063,0.081
					c0.052-0.04,0.123,0,0.123,0l0.092,0.165c0.284-0.027,0.566-0.067,0.846-0.115c0.059-0.066,0.111-0.123,0.152-0.131
					c0.141-0.022,0.069-0.161-0.012-0.453c-0.08-0.289,0.197-0.044,0.372-0.115c0.175-0.07,0.117-0.302,0.361-0.336
					c0.243-0.037,0.509-0.256,0.615-0.42c0.104-0.161-0.048-0.242,0.337-0.195c0.383,0.044,0.732-0.439,1.033-0.803
					c0.303-0.361,0.035-0.475,0.57-0.814c0.534-0.336,1.398-1.251,1.452-1.537c0.052-0.289-0.097-0.299,0.208-0.497
					c0.307-0.201,0.688-0.76,0.724-0.914C683.362,178.197,683.275,177.962,683.188,177.962z"/>
				<path fill="none" stroke="#FFFFFF" stroke-width="2" stroke-miterlimit="10" d="M680.247,158.851
					c-0.442,0-0.534,0.44-0.142,0.512c0.396,0.07,1.209,0.07,1.349,0.648c0.14,0.582-0.419,0.743,0,1.021
					c0.417,0.279-0.094,0.582-0.094,0.976c0,0.397,0.187,0.723,0.464,0.932c0.28,0.208,0.561,0.487,0.583,0.649
					c0.022,0.164,0.301,0.117,0.301,0.117s-0.023-0.094,0-0.236c0.024-0.137,0.256-0.299,0.256-0.692
					c0-0.396,0.208-0.372,0.372-0.35c0.162,0.024,0.488-0.022,0.581,0c0.093,0.024,0.651,0.024,0.696-0.255
					c0.047-0.279-0.371-0.7-0.371-0.7s0.234-0.386,0.23-0.564c0-0.037-0.024-0.121-0.064-0.232c-1.12-0.999-2.402-1.815-3.807-2.407
					C680.602,158.487,680.553,158.851,680.247,158.851z"/>
				<path fill="none" stroke="#FFFFFF" stroke-width="2" stroke-miterlimit="10" d="M688.492,170.198
					c-0.799-0.662-1.322-0.662-1.393-0.487s0.559,0.8,0,1.569c-0.557,0.768-0.976,1.08-0.768,1.705
					c0.211,0.629-0.877,1.188-0.053,1.745c0.82,0.559,0.646,0.559,1.236,0.521c0.584-0.033,0.508,0.888,0.467,1.016
					c0.677-1.632,1.052-3.417,1.052-5.292c0-0.058-0.001-0.115-0.001-0.172C688.934,170.642,688.783,170.44,688.492,170.198z"/>
				<path opacity="0.1" fill="none" stroke="#FFFFFF" stroke-width="2" stroke-miterlimit="10" d="M676.525,184.7
					c7.015-0.643,12.509-6.543,12.509-13.725c0-6.796-4.919-12.444-11.392-13.577C685.635,160.615,689.609,180.134,676.525,184.7z"
					/>
			</g>
			<g>
				<g>
					<g id="Web_5_">
						<path fill="none" stroke="#FFFFFF" stroke-width="2" stroke-miterlimit="10" d="M850.735,196.515
							c0,5.758-4.282,10.426-9.564,10.426H610.827c-5.284,0-9.565-4.668-9.565-10.426V11.429c0-5.76,4.281-10.429,9.565-10.429
							h230.344c5.282,0,9.564,4.669,9.564,10.429V196.515z"/>
						<path fill="none" stroke="#FFFFFF" stroke-width="2" stroke-miterlimit="10" d="M841.171,1H610.827
							c-5.284,0-9.565,4.669-9.565,10.429v40.406h249.474V11.429C850.735,5.669,846.453,1,841.171,1z"/>
						
							<ellipse fill="none" stroke="#FFFFFF" stroke-width="2" stroke-miterlimit="10" cx="806.366" cy="10.271" rx="4.782" ry="5.213"/>
						
							<ellipse fill="none" stroke="#FFFFFF" stroke-width="2" stroke-miterlimit="10" cx="822.175" cy="10.271" rx="4.782" ry="5.213"/>
						
							<ellipse fill="none" stroke="#FFFFFF" stroke-width="2" stroke-miterlimit="10" cx="838.647" cy="10.271" rx="4.782" ry="5.213"/>
						<path fill="none" stroke="#FFFFFF" stroke-width="2" stroke-miterlimit="10" d="M788.564,18.344
							c0,4.458-3.313,8.073-7.404,8.073H635.369c-4.09,0-7.406-3.615-7.406-8.073l0,0c0-4.458,3.316-8.073,7.406-8.073H781.16
							C785.252,10.271,788.564,13.886,788.564,18.344L788.564,18.344z"/>
						<path opacity="0.1" fill="none" stroke="#FFFFFF" stroke-width="2" stroke-miterlimit="10" d="M841.171,1h-115.04v205.94
							h115.04c5.282,0,9.564-4.668,9.564-10.426V11.429C850.735,5.669,846.453,1,841.171,1z"/>
					</g>
					<g id="Sheet">
						<path fill="none" stroke="#FFFFFF" stroke-width="2" stroke-miterlimit="10" d="M613.396,81.183v117.628
							c0,11.159,9.047,20.207,20.209,20.207c11.16,0,20.207-9.048,20.207-20.207H729.9V81.183H613.396z"/>
						<path fill="none" stroke="#FFFFFF" stroke-width="2" stroke-miterlimit="10" d="M748.865,198.252
							c0,11.639-9.436,20.766-21.074,20.766h-94.756c11.639,0,21.073-9.435,21.073-21.073c0-0.675-0.036-1.34-0.097-2h73.779h21.074
							C748.971,196.802,748.865,197.366,748.865,198.252z"/>
					</g>
				</g>
				<g id="Ceck">
					<polygon fill="none" stroke="#FFFFFF" stroke-width="2" stroke-miterlimit="10" points="624.93,99.636 620.202,94.909 
						621.924,93.188 624.93,96.194 632.726,88.397 634.447,90.118 					"/>
				</g>
				
					<text transform="matrix(1 0 0 1 639.0664 139.7842)" fill="none" stroke="#FFFFFF" stroke-width="2" stroke-miterlimit="10" font-family="'MyriadPro-Regular'" font-size="43.8255">&lt;/&gt;</text>
			</g>
			<path fill="none" stroke="#FFFFFF" stroke-width="2" stroke-miterlimit="10" d="M817.57,63.882c0,2.093-3.339,3.791-7.455,3.791
				H613.764c-4.117,0-7.455-1.698-7.455-3.791v-1.967c0-2.095,3.338-3.791,7.455-3.791h196.352c4.116,0,7.455,1.696,7.455,3.791
				V63.882z"/>
			<path fill="none" stroke="#FFFFFF" stroke-width="2" stroke-miterlimit="10" d="M810.28,57.968h-36.272v9.549h36.272
				c4.116,0,7.454-1.697,7.454-3.791v-1.967C817.734,59.664,814.396,57.968,810.28,57.968z"/>
			<path opacity="0.2" fill="none" stroke="#FFFFFF" stroke-width="2" stroke-miterlimit="10" d="M813.081,59.777
				c0,0.327-0.521,0.592-1.164,0.592h-34.394c-0.644,0-1.164-0.265-1.164-0.592l0,0c0-0.327,0.521-0.593,1.164-0.593h34.394
				C812.561,59.185,813.081,59.45,813.081,59.777L813.081,59.777z"/>
			
				<rect x="752.647" y="57.968" opacity="0.3" fill="none" stroke="#FFFFFF" stroke-width="2" stroke-miterlimit="10" width="21.36" height="9.549"/>
			<polygon fill="none" stroke="#FFFFFF" stroke-width="2" stroke-miterlimit="10" points="763.408,64.887 765.627,61.044 
				761.19,61.044 			"/>
			<g>
				
					<text transform="matrix(1 0 0 1 761.3984 139.8477)" fill="none" stroke="#FFFFFF" stroke-width="2" stroke-miterlimit="10" font-family="'MyriadPro-Regular'" font-size="43.8255">CSS</text>
			</g>
			<g>
				
					<circle opacity="0.81" fill="none" stroke="#FFFFFF" stroke-width="2" stroke-miterlimit="10" cx="795.726" cy="166.767" r="11.279"/>
				
					<circle opacity="0.81" fill="none" stroke="#FFFFFF" stroke-width="2" stroke-miterlimit="10" cx="813.908" cy="166.767" r="11.279"/>
				
					<circle opacity="0.81" fill="none" stroke="#FFFFFF" stroke-width="2" stroke-miterlimit="10" cx="805.574" cy="180.403" r="11.279"/>
			</g>
		</g>
	</g>
</g>
</svg>
