<?xml version="1.0" encoding="utf-8"?>
<!-- Generator: Adobe Illustrator 16.0.0, SVG Export Plug-In . SVG Version: 6.00 Build 0)  -->
<!DOCTYPE svg PUBLIC "-//W3C//DTD SVG 1.1//EN" "http://www.w3.org/Graphics/SVG/1.1/DTD/svg11.dtd">
<svg version="1.1" id="Layer_1" xmlns="http://www.w3.org/2000/svg" xmlns:xlink="http://www.w3.org/1999/xlink" x="0px" y="0px"
	 width="873.991px" height="771.996px" viewBox="0 0 873.991 771.996" enable-background="new 0 0 873.991 771.996"
	 xml:space="preserve">
<g>
	<g>
		<g>
			<path fill="none" stroke="#FFFFFF" stroke-width="2" stroke-miterlimit="10" d="M798.768,427.108
				c0,70.858-57.453,128.296-128.303,128.296c-70.865,0-128.303-57.438-128.303-128.296c0-70.857,57.438-128.303,128.303-128.303
				C741.314,298.806,798.768,356.251,798.768,427.108z"/>
			<g>
				<path fill-rule="evenodd" clip-rule="evenodd" fill="none" stroke="#FFFFFF" stroke-width="2" stroke-miterlimit="10" d="
					M682.965,314.74h-22.938c-1.247,0-2.228,1.01-2.228,2.228v11.913c-14.625,2.073-28.166,7.643-39.862,15.893l-11.212-11.21
					c-0.866-0.856-2.27-0.856-3.155,0l-16.234,16.233c-0.856,0.855-0.856,2.279,0,3.146l10.695,10.686
					c-7.601,9.603-13.521,20.711-17.285,32.871l-15.409-2.733c-1.207-0.206-2.352,0.607-2.59,1.805l-3.961,22.619
					c-0.226,1.195,0.579,2.371,1.775,2.588l15.656,2.742c-0.021,1.207-0.042,2.383-0.042,3.601c0,9.241,1.197,18.183,3.435,26.661
					l-14.109,6.602c-1.093,0.506-1.578,1.825-1.072,2.939l9.705,20.813c0.517,1.104,1.847,1.589,2.961,1.083l13.077-6.104
					c5.436,9.24,12.284,17.491,20.226,24.371l-6.549,11.344c-0.608,1.053-0.259,2.414,0.815,3.023l19.884,11.488
					c1.053,0.61,2.414,0.248,3.053-0.813l5.9-10.232c9.901,4.456,20.679,7.158,31.994,7.798l0.99,11.355
					c0.102,1.217,1.195,2.115,2.413,2.011l22.875-1.989c1.218-0.124,2.135-1.197,2.012-2.414l-1.011-11.634
					c10.675-2.733,20.607-7.354,29.507-13.501l8.479,10.117c0.805,0.929,2.208,1.053,3.136,0.279l17.595-14.771
					c0.95-0.794,1.074-2.206,0.27-3.125l-9.386-11.21c6.363-7.881,11.572-16.813,15.367-26.508l15.718,4.199
					c1.176,0.318,2.394-0.393,2.703-1.568l5.94-22.186c0.32-1.176-0.371-2.414-1.566-2.723l-16.338-4.372
					c0.371-3.59,0.557-7.241,0.557-10.934c0-6.436-0.578-12.687-1.67-18.762l16.006-5.817c1.135-0.422,1.732-1.701,1.32-2.855
					l-7.858-21.566c-0.413-1.145-1.702-1.764-2.847-1.341l-15.1,5.497c-4.539-9.365-10.438-17.863-17.441-25.218l8.469-12.099
					c0.689-1.01,0.453-2.392-0.548-3.103l-18.821-13.173c-1.002-0.711-2.383-0.453-3.074,0.558l-7.612,10.829
					c-9.282-5.331-19.524-9.075-30.385-10.869v-12.233C685.192,315.75,684.183,314.74,682.965,314.74L682.965,314.74z
					 M670.454,378.964c26.601,0,48.155,21.547,48.155,48.156c0,26.579-21.555,48.146-48.155,48.146
					c-26.579,0-48.155-21.566-48.155-48.146C622.299,400.511,643.875,378.964,670.454,378.964L670.454,378.964z"/>
				
					<path opacity="0.2" fill-rule="evenodd" clip-rule="evenodd" fill="none" stroke="#FFFFFF" stroke-width="2" stroke-miterlimit="10" d="
					M670.454,360.399c36.851,0,66.71,29.858,66.71,66.721c0,36.831-29.859,66.69-66.71,66.69c-36.83,0-66.699-29.859-66.699-66.69
					C603.755,390.258,633.624,360.399,670.454,360.399L670.454,360.399z M670.454,378.964c26.601,0,48.155,21.547,48.155,48.156
					c0,26.579-21.555,48.146-48.155,48.146c-26.579,0-48.155-21.566-48.155-48.146C622.299,400.511,643.875,378.964,670.454,378.964
					L670.454,378.964z"/>
				<path opacity="0.1" fill="none" stroke="#FFFFFF" stroke-width="2" stroke-miterlimit="10" d="M780.535,442.426l-16.338-4.372
					c0.371-3.59,0.557-7.241,0.557-10.934c0-6.436-0.578-12.687-1.67-18.762l16.006-5.817c1.135-0.422,1.732-1.701,1.32-2.855
					l-7.858-21.566c-0.413-1.145-1.702-1.764-2.847-1.341l-15.1,5.497c-4.539-9.365-10.438-17.863-17.441-25.218l8.469-12.099
					c0.689-1.01,0.453-2.392-0.548-3.103l-18.821-13.173c-1.002-0.711-2.383-0.453-3.074,0.558l-7.612,10.829
					c-9.282-5.331-19.524-9.075-30.385-10.869v-12.233c0-1.218-1.01-2.228-2.228-2.228h-12.5v64.224
					c26.599,0,48.145,21.547,48.145,48.156c0,26.579-21.546,48.146-48.145,48.146v64.06l21.308-1.856
					c1.218-0.124,2.135-1.197,2.012-2.414l-1.011-11.634c10.675-2.733,20.607-7.354,29.507-13.501l8.479,10.117
					c0.805,0.929,2.208,1.053,3.136,0.279l17.595-14.771c0.95-0.794,1.074-2.206,0.27-3.125l-9.386-11.21
					c6.363-7.881,11.572-16.813,15.367-26.508l15.718,4.199c1.176,0.318,2.394-0.393,2.703-1.568l5.94-22.186
					C782.422,443.973,781.73,442.734,780.535,442.426z"/>
			</g>
			<g>
				<path fill="none" stroke="#FFFFFF" stroke-width="2" stroke-miterlimit="10" d="M796.742,139.225
					c0,76.342-61.883,138.233-138.233,138.233c-76.334,0-138.232-61.892-138.232-138.233S582.175,1,658.509,1
					C734.859,1,796.742,62.883,796.742,139.225z"/>
				<g id="Lamp_11_">
					<path fill="none" stroke="#FFFFFF" stroke-width="2" stroke-miterlimit="10" d="M658.82,107.536
						c-4.516-0.109-44.454,0.16-44.521,44.948c-0.025,17.64,24.354,54.17,24.354,54.17h19.745h0.84h19.729
						c0,0,24.388-36.53,24.362-54.17C703.271,107.696,663.326,107.427,658.82,107.536z"/>
					<g>
						<path fill="none" stroke="#FFFFFF" stroke-width="2" stroke-miterlimit="10" d="M664.435,207.871
							c-0.018-0.075-1.839-8.357-1.973-23.783c-0.042-4.456,0.327-7.846,1.099-10.137c-0.998,0.167-2.131,0.192-3.39-0.025
							c-0.94-0.177-1.536-0.555-1.914-0.982c-1.058,0.797-2.467,1.25-3.911,1.451c0.151,0.202,0.303,0.429,0.453,0.664
							c3.156,4.884,1.167,31.596,1.075,32.729l-1.259-0.092c0.587-7.621,1.562-28.189-0.873-31.948
							c-0.311-0.479-0.604-0.89-0.873-1.233c-0.311,0.008-0.62,0-0.906-0.01c-2.627-0.116-2.753-0.855-2.785-1.099
							c-0.101-0.597,0.234-1.385,0.989-1.679c0.705-0.269,1.78-0.151,3.257,1.494c0.872-0.066,1.813-0.227,2.693-0.555
							c0.63-0.234,1.142-0.52,1.552-0.872c0-0.018-0.007-0.034-0.016-0.059c-0.269-1.394,0.512-2.93,1.142-3.34
							c0.318-0.201,0.671-0.21,0.947-0.009c0.429,0.318,0.495,0.94,0.177,2.131c-0.151,0.588-0.419,1.107-0.765,1.545
							c0.252,0.311,0.664,0.512,1.252,0.621c1.442,0.26,2.701,0.134,3.759-0.159c0.42-0.798,0.924-1.377,1.52-1.729
							c1.016-0.621,2.03-0.385,2.467-0.143l0.739,0.403l-0.597,0.595c-0.083,0.076-1.241,1.227-3.248,1.914
							c-0.737,1.654-1.376,4.75-1.325,10.516c0.142,15.289,1.922,23.439,1.947,23.521L664.435,207.871z M650.469,173.027
							c0.235,0.084,0.622,0.152,1.107,0.193c-0.453-0.318-0.771-0.378-0.956-0.318C650.554,172.927,650.503,172.978,650.469,173.027
							z"/>
					</g>
					<path fill="none" stroke="#FFFFFF" stroke-width="2" stroke-miterlimit="10" d="M638.654,206.654v21.282
						c0,2.786,2.156,5.036,4.809,5.036h30.705c2.652,0,4.801-2.25,4.801-5.036v-21.282H638.654z"/>
					<g>
						<path opacity="0.1" fill="none" stroke="#FFFFFF" stroke-width="2" stroke-miterlimit="10" d="M678.969,209.911
							c0,0.755-0.681,1.366-1.519,1.366h-37.261c-0.849,0-1.535-0.611-1.535-1.366l0,0c0-0.756,0.687-1.36,1.535-1.36h37.261
							C678.288,208.551,678.969,209.155,678.969,209.911L678.969,209.911z"/>
						<path opacity="0.1" fill="none" stroke="#FFFFFF" stroke-width="2" stroke-miterlimit="10" d="M678.969,215.374
							c0,0.746-0.681,1.367-1.519,1.367h-37.261c-0.849,0-1.535-0.621-1.535-1.367l0,0c0-0.755,0.687-1.368,1.535-1.368h37.261
							C678.288,214.006,678.969,214.619,678.969,215.374L678.969,215.374z"/>
						<path opacity="0.1" fill="none" stroke="#FFFFFF" stroke-width="2" stroke-miterlimit="10" d="M678.969,220.828
							c0,0.756-0.681,1.369-1.519,1.369h-37.261c-0.849,0-1.535-0.613-1.535-1.369l0,0c0-0.746,0.687-1.368,1.535-1.368h37.261
							C678.288,219.46,678.969,220.082,678.969,220.828L678.969,220.828z"/>
						<path opacity="0.1" fill="none" stroke="#FFFFFF" stroke-width="2" stroke-miterlimit="10" d="M678.969,226.291
							c0,0.756-0.681,1.36-1.519,1.36h-37.261c-0.849,0-1.535-0.604-1.535-1.36l0,0c0-0.755,0.687-1.368,1.535-1.368h37.261
							C678.288,224.923,678.969,225.536,678.969,226.291L678.969,226.291z"/>
						<path opacity="0.1" fill="none" stroke="#FFFFFF" stroke-width="2" stroke-miterlimit="10" d="M678.969,212.638
							c0,0.755-0.681,1.368-1.519,1.368h-37.261c-0.849,0-1.535-0.613-1.535-1.368l0,0c0-0.756,0.687-1.36,1.535-1.36h37.261
							C678.288,211.277,678.969,211.882,678.969,212.638L678.969,212.638z"/>
						<path opacity="0.1" fill="none" stroke="#FFFFFF" stroke-width="2" stroke-miterlimit="10" d="M678.969,218.101
							c0,0.755-0.681,1.359-1.519,1.359h-37.261c-0.849,0-1.535-0.604-1.535-1.359l0,0c0-0.755,0.687-1.359,1.535-1.359h37.261
							C678.288,216.741,678.969,217.346,678.969,218.101L678.969,218.101z"/>
						<path opacity="0.1" fill="none" stroke="#FFFFFF" stroke-width="2" stroke-miterlimit="10" d="M678.969,223.557
							c0,0.755-0.681,1.366-1.519,1.366h-37.261c-0.849,0-1.535-0.611-1.535-1.366l0,0c0-0.748,0.687-1.359,1.535-1.359h37.261
							C678.288,222.197,678.969,222.809,678.969,223.557L678.969,223.557z"/>
						<path opacity="0.1" fill="none" stroke="#FFFFFF" stroke-width="2" stroke-miterlimit="10" d="M678.969,229.02
							c0,0.755-0.681,1.367-1.519,1.367h-37.261c-0.849,0-1.535-0.612-1.535-1.367l0,0c0-0.756,0.687-1.368,1.535-1.368h37.261
							C678.288,227.651,678.969,228.264,678.969,229.02L678.969,229.02z"/>
					</g>
					<path opacity="0.1" fill="none" stroke="#FFFFFF" stroke-width="2" stroke-miterlimit="10" d="M671.357,109.021
						c6.369,14.25,21.324,56.294-1.1,97.717h8.711c0,0,24.388-36.539,24.362-54.179
						C703.288,121.945,684.617,112.135,671.357,109.021z"/>
					<path opacity="0.4" fill="none" stroke="#FFFFFF" stroke-width="2" stroke-miterlimit="10" d="M637.563,144.151
						c0.84,2.383-1.41,5.337-5.026,6.612c-3.618,1.268-7.226,0.369-8.057-2.014c-0.831-2.376,1.418-5.338,5.026-6.605
						C633.115,140.878,636.723,141.775,637.563,144.151z"/>
					<path opacity="0.4" fill="none" stroke="#FFFFFF" stroke-width="2" stroke-miterlimit="10" d="M652.677,124.193
						c1.611,4.592-2.728,10.298-9.701,12.748c-6.974,2.451-13.923,0.722-15.543-3.868c-1.618-4.591,2.729-10.306,9.693-12.757
						C644.1,117.867,651.057,119.604,652.677,124.193z"/>
					<g>
						<polygon fill="none" stroke="#FFFFFF" stroke-width="2" stroke-miterlimit="10" points="590.483,69.319 591.877,68.076 
							629.439,106.286 628.046,107.527 						"/>
						<polygon fill="none" stroke="#FFFFFF" stroke-width="2" stroke-miterlimit="10" points="549.824,123.237 550.085,121.425 
							604.138,128.356 603.877,130.17 						"/>
						<polygon fill="none" stroke="#FFFFFF" stroke-width="2" stroke-miterlimit="10" points="551.964,174.337 551.586,172.55 
							605.019,162.152 605.404,163.939 						"/>
						<polygon fill="none" stroke="#FFFFFF" stroke-width="2" stroke-miterlimit="10" points="722.8,69.319 721.415,68.076 
							683.853,106.286 685.246,107.527 						"/>
						<polygon fill="none" stroke="#FFFFFF" stroke-width="2" stroke-miterlimit="10" points="767.203,126.074 766.951,124.262 
							712.889,131.193 713.15,133.006 						"/>
						<polygon fill="none" stroke="#FFFFFF" stroke-width="2" stroke-miterlimit="10" points="763.543,170.064 763.93,168.27 
							710.488,157.879 710.104,159.667 						"/>
						<polygon fill="none" stroke="#FFFFFF" stroke-width="2" stroke-miterlimit="10" points="660.086,97.323 658.165,97.349 
							657.133,45.512 659.063,45.478 						"/>
					</g>
				</g>
			</g>
			<g>
				<g>
					<path fill-rule="evenodd" clip-rule="evenodd" fill="none" stroke="#FFFFFF" stroke-width="2" stroke-miterlimit="10" d="
						M656.9,531.813c0,13.763-11.162,24.916-24.923,24.916H133.625c-13.766,0-24.92-11.153-24.92-24.916v-308.36
						c0-13.761,11.154-24.914,24.92-24.914h498.353c13.761,0,24.923,11.153,24.923,24.914V531.813z"/>
					
						<rect x="133.199" y="222.168" fill-rule="evenodd" clip-rule="evenodd" fill="none" stroke="#FFFFFF" stroke-width="2" stroke-miterlimit="10" width="501.322" height="309.548"/>
				</g>
				<path fill-rule="evenodd" clip-rule="evenodd" fill="none" stroke="#FFFFFF" stroke-width="2" stroke-miterlimit="10" d="
					M1.503,554.916C1.183,557.123,1,559.4,1,561.727c0,19.693,11.948,35.647,26.68,35.647h712.364
					c14.732,0,26.673-15.954,26.673-35.647c0-2.326-0.176-4.604-0.499-6.811H1.503z"/>
				<path opacity="0.1" fill="none" stroke="#FFFFFF" stroke-width="2" stroke-miterlimit="10" d="M3.295,576.148
					c4.146,12.496,13.494,21.226,24.385,21.226h712.364c10.895,0,20.241-8.729,24.39-21.226H3.295z"/>
				
					<rect x="159.176" y="251.159" fill="none" stroke="#FFFFFF" stroke-width="2" stroke-miterlimit="10" width="125.519" height="6.241"/>
				
					<rect x="159.176" y="269.883" fill="none" stroke="#FFFFFF" stroke-width="2" stroke-miterlimit="10" width="125.519" height="6.241"/>
				
					<rect x="159.176" y="287.223" fill="none" stroke="#FFFFFF" stroke-width="2" stroke-miterlimit="10" width="125.519" height="6.24"/>
				
					<rect x="159.176" y="448.338" fill="none" stroke="#FFFFFF" stroke-width="2" stroke-miterlimit="10" width="125.519" height="6.242"/>
				
					<rect x="159.176" y="427.767" fill="none" stroke="#FFFFFF" stroke-width="2" stroke-miterlimit="10" width="125.519" height="6.241"/>
				
					<rect x="159.176" y="469.6" fill="none" stroke="#FFFFFF" stroke-width="2" stroke-miterlimit="10" width="125.519" height="6.24"/>
				
					<rect x="308.967" y="326.749" fill="none" stroke="#FFFFFF" stroke-width="2" stroke-miterlimit="10" width="125.515" height="6.241"/>
				
					<rect x="176.512" y="326.749" fill="none" stroke="#FFFFFF" stroke-width="2" stroke-miterlimit="10" width="125.519" height="6.241"/>
				
					<rect x="176.512" y="344.088" fill="none" stroke="#FFFFFF" stroke-width="2" stroke-miterlimit="10" width="125.519" height="6.241"/>
				
					<rect x="308.967" y="344.088" fill="none" stroke="#FFFFFF" stroke-width="2" stroke-miterlimit="10" width="58.943" height="6.241"/>
				
					<rect x="176.512" y="377.635" fill="none" stroke="#FFFFFF" stroke-width="2" stroke-miterlimit="10" width="125.519" height="6.24"/>
				
					<rect x="308.967" y="377.635" fill="none" stroke="#FFFFFF" stroke-width="2" stroke-miterlimit="10" width="58.943" height="6.24"/>
				
					<rect x="176.512" y="306.642" fill="none" stroke="#FFFFFF" stroke-width="2" stroke-miterlimit="10" width="271.147" height="6.241"/>
				
					<rect x="176.512" y="360.73" fill="none" stroke="#FFFFFF" stroke-width="2" stroke-miterlimit="10" width="271.147" height="6.241"/>
				
					<rect x="176.512" y="397.481" fill="none" stroke="#FFFFFF" stroke-width="2" stroke-miterlimit="10" width="271.147" height="6.241"/>
				
					<rect x="159.176" y="486.938" fill="none" stroke="#FFFFFF" stroke-width="2" stroke-miterlimit="10" width="271.146" height="6.241"/>
				<path fill-rule="evenodd" clip-rule="evenodd" fill="none" stroke="#FFFFFF" stroke-width="2" stroke-miterlimit="10" d="
					M511.704,241.122H141.728c-3.037,0-5.5-2.462-5.5-5.5v-3.756c0-3.038,2.463-5.5,5.5-5.5h369.977c3.037,0,5.5,2.462,5.5,5.5
					v3.756C517.204,238.66,514.741,241.122,511.704,241.122z"/>
			</g>
			<path fill="none" stroke="#FFFFFF" stroke-width="2" stroke-miterlimit="10" d="M142.342,630.057l0.476,70.748
				c0,0,30.626,31.021,39.884,47.4c9.26,16.381,26.353,22.791,27.064,22.791c0.713,0,101.134,0,101.134,0
				s24.927-7.121,25.641-41.311V613.598c0,0-15.196-29.121-29.915,0h-9.26v-17.805c0,0-17.801-27.776-33.471,0v16.38h-9.26v-28.727
				c0,0-17.806-30.862-32.761,0v28.727h-9.971v-86.891c0,0-15.672-33.472-31.34,0v171.011c0,0-4.393-4.271-7.241-14.241
				l-2.729-33.558C170.594,648.494,162.283,614.212,142.342,630.057z"/>
			<path opacity="0.1" fill="none" stroke="#FFFFFF" stroke-width="2" stroke-miterlimit="10" d="M191.246,511.586
				c-3.433,1.82-7.054,5.951-10.683,13.696V698.35l10.683-0.395V511.586z"/>
			<path opacity="0.1" fill="none" stroke="#FFFFFF" stroke-width="2" stroke-miterlimit="10" d="M225.251,577.582
				c-1.138,1.654-2.265,3.567-3.377,5.864v28.727h-9.971v-86.891c0,0-0.818-1.737-2.261-4.02v1.607v93.656h15.608V577.582z"/>
			<path opacity="0.1" fill="none" stroke="#FFFFFF" stroke-width="2" stroke-miterlimit="10" d="M266.084,592.312
				c-0.732,1.059-1.465,2.192-2.189,3.481v16.38h-9.26v-28.727c0,0-1.256-2.167-3.37-4.773v35.539h14.819V592.312z"/>
			<path opacity="0.1" fill="none" stroke="#FFFFFF" stroke-width="2" stroke-miterlimit="10" d="M306.625,613.598h-9.26v-17.805
				c0,0-1.063-1.647-2.878-3.736v24.47h15.225v-8.179C308.686,609.84,307.652,611.563,306.625,613.598z"/>
			<path opacity="0.4" fill="none" stroke="#FFFFFF" stroke-width="2" stroke-miterlimit="10" d="M148.75,642.167
				c-0.712-8.901-6.391-9.967-6.396-9.97l0.118,17.445h6.277V642.167z"/>
			<path opacity="0.5" fill="none" stroke="#FFFFFF" stroke-width="2" stroke-miterlimit="10" d="M196.075,516.736
				c-5.236,0-9.482,5.057-9.482,11.302h18.965C205.558,521.793,201.312,516.736,196.075,516.736z"/>
			<g>
				<path fill="none" stroke="#FFFFFF" stroke-width="2" stroke-miterlimit="10" d="M821.717,447.708
					c115.366-162.317,0-285.732,0-285.732l-4.024,17.439"/>
				
					<line fill="none" stroke="#FFFFFF" stroke-width="2" stroke-miterlimit="10" x1="821.717" y1="447.708" x2="839.155" y2="447.708"/>
				
					<line fill="none" stroke="#FFFFFF" stroke-width="2" stroke-miterlimit="10" x1="821.717" y1="160.635" x2="839.155" y2="160.635"/>
			</g>
			
				<line fill="none" stroke="#FFFFFF" stroke-width="2" stroke-miterlimit="10" x1="817.018" y1="431.364" x2="822.392" y2="447.955"/>
		</g>
	</g>
</g>
</svg>
