<?xml version="1.0" encoding="utf-8"?>
<!-- Generator: Adobe Illustrator 16.0.0, SVG Export Plug-In . SVG Version: 6.00 Build 0)  -->
<!DOCTYPE svg PUBLIC "-//W3C//DTD SVG 1.1//EN" "http://www.w3.org/Graphics/SVG/1.1/DTD/svg11.dtd">
<svg version="1.1" id="Layer_1" xmlns="http://www.w3.org/2000/svg" xmlns:xlink="http://www.w3.org/1999/xlink" x="0px" y="0px"
	 width="496.425px" height="678.194px" viewBox="0 0 496.425 678.194" enable-background="new 0 0 496.425 678.194"
	 xml:space="preserve">
<g>
	<g>
		<g>
			
				<rect x="7.356" y="114.963" transform="matrix(1 -0.0018 0.0018 1 -0.534 0.0472)" fill="none" stroke="#FFFFFF" stroke-width="2" stroke-miterlimit="10" width="36.023" height="349.509"/>
			<path fill="none" stroke="#FFFFFF" stroke-width="2" stroke-miterlimit="10" d="M18.771,274.107
				c0.203,0.203,0.328,0.482,0.328,0.792c0,0.618-0.502,1.119-1.12,1.118l-6.963-0.002c-0.618,0-1.119-0.501-1.118-1.119
				c0-0.618,0.501-1.119,1.119-1.119l6.963,0.003C18.289,273.78,18.568,273.905,18.771,274.107z"/>
			<path fill="none" stroke="#FFFFFF" stroke-width="2" stroke-miterlimit="10" d="M18.763,288.23
				c0.202,0.203,0.327,0.482,0.327,0.792c0,0.618-0.501,1.118-1.119,1.118l-6.964-0.002c-0.618,0-1.118-0.501-1.118-1.119
				s0.501-1.119,1.119-1.119l6.963,0.003C18.28,287.903,18.56,288.028,18.763,288.23z"/>
			<path fill="none" stroke="#FFFFFF" stroke-width="2" stroke-miterlimit="10" d="M18.087,203.532
				c0.193,0.192,0.312,0.459,0.312,0.753c0,0.588-0.477,1.064-1.064,1.064l-6.625-0.003c-0.588,0-1.064-0.477-1.064-1.064
				s0.478-1.064,1.065-1.064l6.625,0.002C17.629,203.22,17.895,203.34,18.087,203.532z"/>
			<path fill="none" stroke="#FFFFFF" stroke-width="2" stroke-miterlimit="10" d="M24.194,267.081
				c0.192,0.192,0.312,0.459,0.312,0.753c0,0.588-0.478,1.064-1.065,1.064l-12.747-0.005c-0.588,0-1.064-0.477-1.064-1.064
				s0.478-1.064,1.065-1.064l12.747,0.005C23.735,266.77,24.002,266.889,24.194,267.081z"/>
			<path fill="none" stroke="#FFFFFF" stroke-width="2" stroke-miterlimit="10" d="M24.886,281.165
				c0.202,0.202,0.327,0.482,0.327,0.792c0,0.617-0.501,1.118-1.119,1.118l-13.398-0.005c-0.618,0-1.119-0.501-1.119-1.119
				s0.501-1.119,1.119-1.118l13.399,0.004C24.403,280.837,24.683,280.963,24.886,281.165z"/>
			<path fill="none" stroke="#FFFFFF" stroke-width="2" stroke-miterlimit="10" d="M24.56,295.289
				c0.202,0.202,0.328,0.482,0.327,0.791c0,0.618-0.501,1.119-1.119,1.118l-13.398-0.004c-0.618,0-1.118-0.501-1.118-1.119
				s0.501-1.119,1.119-1.119l13.398,0.005C24.078,294.961,24.357,295.086,24.56,295.289z"/>
			<path fill="none" stroke="#FFFFFF" stroke-width="2" stroke-miterlimit="10" d="M23.896,252.959
				c0.192,0.192,0.312,0.458,0.312,0.753c0,0.588-0.477,1.063-1.064,1.063l-12.748-0.004c-0.588,0-1.064-0.477-1.064-1.064
				c0.001-0.589,0.478-1.064,1.065-1.064l12.747,0.004C23.438,252.646,23.704,252.766,23.896,252.959z"/>
			<path fill="none" stroke="#FFFFFF" stroke-width="2" stroke-miterlimit="10" d="M23.599,238.836
				c0.193,0.192,0.313,0.459,0.313,0.753c-0.001,0.588-0.478,1.064-1.065,1.064l-12.747-0.005c-0.589,0-1.064-0.477-1.064-1.064
				s0.477-1.064,1.064-1.064l12.748,0.005C23.141,238.524,23.406,238.644,23.599,238.836z"/>
			<path fill="none" stroke="#FFFFFF" stroke-width="2" stroke-miterlimit="10" d="M23.903,224.713
				c0.193,0.192,0.313,0.459,0.313,0.752c0,0.589-0.478,1.065-1.065,1.064l-12.747-0.004c-0.589,0-1.064-0.477-1.064-1.064
				s0.477-1.064,1.064-1.064l12.748,0.004C23.445,224.4,23.711,224.52,23.903,224.713z"/>
			<path fill="none" stroke="#FFFFFF" stroke-width="2" stroke-miterlimit="10" d="M24.208,210.589
				c0.193,0.192,0.313,0.459,0.312,0.753c0,0.588-0.477,1.064-1.064,1.064l-12.747-0.004c-0.589-0.001-1.064-0.478-1.064-1.065
				s0.477-1.064,1.064-1.064l12.748,0.005C23.75,210.277,24.016,210.396,24.208,210.589z"/>
			<path fill="none" stroke="#FFFFFF" stroke-width="2" stroke-miterlimit="10" d="M24.513,196.465
				c0.193,0.193,0.313,0.459,0.312,0.754c0,0.588-0.477,1.064-1.064,1.063l-12.748-0.004c-0.588,0-1.063-0.477-1.063-1.065
				c0-0.588,0.477-1.064,1.064-1.063l12.748,0.004C24.055,196.153,24.32,196.272,24.513,196.465z"/>
			<path fill="none" stroke="#FFFFFF" stroke-width="2" stroke-miterlimit="10" d="M24.216,182.343
				c0.192,0.192,0.312,0.459,0.312,0.753c-0.001,0.588-0.478,1.064-1.065,1.064l-12.747-0.004c-0.589-0.001-1.064-0.478-1.064-1.065
				s0.477-1.064,1.065-1.064l12.747,0.005C23.757,182.031,24.022,182.15,24.216,182.343z"/>
			<path fill="none" stroke="#FFFFFF" stroke-width="2" stroke-miterlimit="10" d="M24.521,168.219
				c0.192,0.193,0.312,0.459,0.312,0.754c0,0.588-0.478,1.064-1.065,1.063l-12.747-0.004c-0.589,0-1.064-0.477-1.064-1.065
				c0-0.588,0.477-1.064,1.064-1.063l12.748,0.004C24.062,167.907,24.328,168.026,24.521,168.219z"/>
			<path fill="none" stroke="#FFFFFF" stroke-width="2" stroke-miterlimit="10" d="M23.921,154.098
				c0.192,0.192,0.312,0.459,0.312,0.753c0,0.588-0.478,1.064-1.065,1.063L10.42,155.91c-0.588,0-1.064-0.477-1.064-1.064
				s0.478-1.064,1.065-1.064l12.747,0.004C23.462,153.785,23.729,153.904,23.921,154.098z"/>
			<path fill="none" stroke="#FFFFFF" stroke-width="2" stroke-miterlimit="10" d="M23.623,139.975
				c0.192,0.193,0.312,0.459,0.312,0.753c0,0.588-0.477,1.064-1.064,1.064l-12.748-0.004c-0.588-0.001-1.064-0.478-1.064-1.065
				s0.478-1.064,1.065-1.064l12.747,0.005C23.165,139.663,23.431,139.782,23.623,139.975z"/>
			<path fill="none" stroke="#FFFFFF" stroke-width="2" stroke-miterlimit="10" d="M23.928,125.852
				c0.192,0.192,0.312,0.459,0.312,0.753c0,0.588-0.477,1.064-1.064,1.063l-12.748-0.004c-0.588,0-1.064-0.477-1.064-1.064
				s0.478-1.064,1.065-1.064l12.747,0.004C23.47,125.539,23.735,125.658,23.928,125.852z"/>
			<path fill="none" stroke="#FFFFFF" stroke-width="2" stroke-miterlimit="10" d="M18.988,457.455
				c0.202,0.203,0.327,0.482,0.327,0.792c0,0.618-0.501,1.118-1.119,1.118l-6.963-0.002c-0.618,0-1.119-0.502-1.118-1.119
				c0-0.618,0.501-1.119,1.119-1.119l6.963,0.003C18.507,457.128,18.786,457.253,18.988,457.455z"/>
			<path fill="none" stroke="#FFFFFF" stroke-width="2" stroke-miterlimit="10" d="M24.412,450.429
				c0.192,0.192,0.312,0.459,0.312,0.753c0,0.588-0.478,1.064-1.065,1.064l-12.747-0.005c-0.588,0-1.064-0.477-1.064-1.064
				s0.477-1.064,1.064-1.064l12.748,0.004C23.953,450.116,24.22,450.236,24.412,450.429z"/>
			<path fill="none" stroke="#FFFFFF" stroke-width="2" stroke-miterlimit="10" d="M24.114,436.306
				c0.192,0.193,0.312,0.459,0.312,0.753c0,0.588-0.477,1.064-1.064,1.064l-12.748-0.004c-0.588,0-1.064-0.477-1.064-1.065
				c0.001-0.588,0.478-1.064,1.065-1.063l12.747,0.004C23.655,435.994,23.922,436.113,24.114,436.306z"/>
			<path fill="none" stroke="#FFFFFF" stroke-width="2" stroke-miterlimit="10" d="M23.816,422.184
				c0.192,0.192,0.312,0.459,0.312,0.753c0,0.588-0.477,1.064-1.064,1.064l-12.748-0.005c-0.588,0-1.064-0.477-1.063-1.064
				c0-0.588,0.477-1.064,1.064-1.064l12.747,0.004C23.358,421.871,23.624,421.991,23.816,422.184z"/>
			<path fill="none" stroke="#FFFFFF" stroke-width="2" stroke-miterlimit="10" d="M24.121,408.061
				c0.192,0.192,0.312,0.458,0.312,0.752c0,0.588-0.477,1.065-1.064,1.064l-12.748-0.004c-0.588,0-1.064-0.477-1.063-1.065
				c0-0.588,0.477-1.064,1.064-1.063l12.747,0.004C23.663,407.748,23.929,407.867,24.121,408.061z"/>
			<path fill="none" stroke="#FFFFFF" stroke-width="2" stroke-miterlimit="10" d="M24.426,393.937
				c0.192,0.192,0.312,0.459,0.312,0.753c0,0.588-0.477,1.064-1.064,1.064l-12.748-0.005c-0.588,0-1.064-0.477-1.063-1.064
				c0-0.588,0.477-1.064,1.064-1.064l12.747,0.005C23.968,393.625,24.233,393.744,24.426,393.937z"/>
			<path fill="none" stroke="#FFFFFF" stroke-width="2" stroke-miterlimit="10" d="M24.73,379.813
				c0.192,0.193,0.312,0.459,0.312,0.753c0,0.588-0.477,1.064-1.064,1.064l-12.748-0.004c-0.588-0.001-1.064-0.477-1.063-1.065
				c0-0.588,0.477-1.064,1.064-1.063l12.747,0.004C24.272,379.501,24.538,379.62,24.73,379.813z"/>
			<path fill="none" stroke="#FFFFFF" stroke-width="2" stroke-miterlimit="10" d="M24.433,365.69
				c0.193,0.192,0.313,0.459,0.313,0.753c0,0.588-0.478,1.064-1.065,1.064l-12.747-0.005c-0.589,0-1.064-0.477-1.064-1.064
				s0.477-1.064,1.064-1.064l12.748,0.005C23.975,365.379,24.24,365.498,24.433,365.69z"/>
			<path fill="none" stroke="#FFFFFF" stroke-width="2" stroke-miterlimit="10" d="M24.737,351.566
				c0.193,0.193,0.313,0.459,0.313,0.753c0,0.589-0.478,1.065-1.065,1.064l-12.747-0.004c-0.589,0-1.064-0.477-1.064-1.065
				c0-0.588,0.477-1.064,1.064-1.063l12.748,0.004C24.279,351.255,24.545,351.374,24.737,351.566z"/>
			<path fill="none" stroke="#FFFFFF" stroke-width="2" stroke-miterlimit="10" d="M24.139,337.445
				c0.192,0.192,0.312,0.458,0.312,0.753c0,0.588-0.478,1.064-1.065,1.063l-12.747-0.004c-0.588,0-1.064-0.477-1.064-1.064
				s0.477-1.064,1.065-1.064l12.747,0.004C23.68,337.133,23.946,337.252,24.139,337.445z"/>
			<path fill="none" stroke="#FFFFFF" stroke-width="2" stroke-miterlimit="10" d="M23.841,323.322
				c0.192,0.193,0.312,0.459,0.312,0.753c0,0.588-0.477,1.064-1.065,1.064l-12.747-0.004c-0.588-0.001-1.064-0.478-1.064-1.065
				s0.478-1.064,1.065-1.064l12.747,0.005C23.382,323.011,23.648,323.13,23.841,323.322z"/>
			<path fill="none" stroke="#FFFFFF" stroke-width="2" stroke-miterlimit="10" d="M24.146,309.199
				c0.192,0.192,0.312,0.459,0.312,0.753c0,0.588-0.477,1.064-1.065,1.063l-12.747-0.004c-0.588,0-1.064-0.477-1.064-1.064
				s0.478-1.064,1.065-1.064l12.747,0.004C23.687,308.887,23.953,309.006,24.146,309.199z"/>
		</g>
	</g>
	<g>
		<path fill="none" stroke="#FFFFFF" stroke-width="2" stroke-miterlimit="10" d="M83.575,49.109h330.703
			c12.491,0,22.683,11.002,22.683,24.488v431.847c0,13.477-10.191,24.534-22.683,24.534H83.575
			c-12.444,0-22.683-11.058-22.683-24.534V73.598C60.893,60.111,71.131,49.109,83.575,49.109L83.575,49.109z"/>
	</g>
	<g>
		
			<rect x="79.182" y="70.461" fill="none" stroke="#FFFFFF" stroke-width="2" stroke-miterlimit="10" width="339.536" height="438.111"/>
	</g>
	<g>
		<polygon fill="none" stroke="#FFFFFF" stroke-width="2" stroke-miterlimit="10" points="178.437,1 319.464,1 319.464,70.461 
			311.607,70.461 311.607,9.879 185.827,9.879 185.827,70.461 178.437,70.461 		"/>
	</g>
	<g>
		<path fill-rule="evenodd" clip-rule="evenodd" fill="none" stroke="#FFFFFF" stroke-width="2" stroke-miterlimit="10" d="
			M482.442,140.087c0,0-17.719-7.329-11.135-34.799c6.591-27.47,6.642-34.683,6.642-34.683s29.95,34.282,10.563,69.342l-1.82,2.522
			L482.442,140.087z"/>
		
			<path opacity="0.2" fill-rule="evenodd" clip-rule="evenodd" fill="none" stroke="#FFFFFF" stroke-width="2" stroke-miterlimit="10" d="
			M478.342,72.371c2.986,13.24,8.27,41.771,5.983,69.688l0.594,0.355l1.689-2.526C502.194,109.506,483.628,79.818,478.342,72.371z"
			/>
		<path fill-rule="evenodd" clip-rule="evenodd" fill="none" stroke="#FFFFFF" stroke-width="2" stroke-miterlimit="10" d="
			M475.272,497.966c4.944-56.447,17.367-202.442,19.744-270.367c2.982-85.235-11.344-88.884-11.344-88.884l-1.467,0.291
			l-2.924-0.094c0,0-14.512,5.97-14.865,90.985c-0.275,67.762,6.458,212.179,9.208,268.022l0.594,12.021L475.272,497.966z"/>
		
			<path opacity="0.2" fill-rule="evenodd" clip-rule="evenodd" fill="none" stroke="#FFFFFF" stroke-width="2" stroke-miterlimit="10" d="
			M495.017,227.599c2.982-85.235-11.344-88.884-11.344-88.884l-0.482,0.099l-8.972,371.128l1.054-11.976
			C480.217,441.519,492.64,295.523,495.017,227.599z"/>
	</g>
	<g>
		<g>
			<path fill="none" stroke="#FFFFFF" stroke-width="2" stroke-miterlimit="10" d="M2.408,543.682l131.604,132.092V543.682H2.408z
				 M106.488,607.775l-36.502-35.99h36.502V607.775z"/>
			<path fill="none" stroke="#FFFFFF" stroke-width="2" stroke-miterlimit="10" d="M127.351,654.227
				c0.269,0,0.537,0.103,0.742,0.307c0.41,0.41,0.41,1.074,0,1.484l-4.617,4.617c-0.41,0.41-1.074,0.41-1.483,0
				c-0.41-0.41-0.41-1.074,0-1.484l4.616-4.617C126.813,654.329,127.082,654.227,127.351,654.227z"/>
			<path fill="none" stroke="#FFFFFF" stroke-width="2" stroke-miterlimit="10" d="M117.277,644.992
				c0.269,0,0.537,0.103,0.742,0.308c0.409,0.409,0.409,1.074,0,1.483l-4.617,4.617c-0.41,0.41-1.074,0.41-1.484,0
				c-0.409-0.41-0.409-1.074,0-1.484l4.617-4.616C116.74,645.095,117.009,644.992,117.277,644.992z"/>
			<path fill="none" stroke="#FFFFFF" stroke-width="2" stroke-miterlimit="10" d="M108.043,635.758
				c0.269,0,0.537,0.103,0.742,0.308c0.409,0.409,0.409,1.074,0,1.483l-4.617,4.617c-0.41,0.41-1.074,0.41-1.484,0
				c-0.409-0.409-0.409-1.074,0-1.483l4.617-4.617C107.506,635.86,107.774,635.758,108.043,635.758z"/>
			<path fill="none" stroke="#FFFFFF" stroke-width="2" stroke-miterlimit="10" d="M98.389,626.104c0.269,0,0.537,0.103,0.742,0.308
				c0.41,0.41,0.41,1.074,0,1.484l-4.617,4.616c-0.409,0.41-1.073,0.41-1.483,0c-0.41-0.409-0.41-1.073,0-1.483l4.617-4.617
				C97.853,626.206,98.12,626.104,98.389,626.104z"/>
			<path fill="none" stroke="#FFFFFF" stroke-width="2" stroke-miterlimit="10" d="M89.155,616.87c0.268,0,0.536,0.103,0.741,0.307
				c0.41,0.41,0.41,1.074,0,1.484l-4.617,4.617c-0.409,0.409-1.073,0.409-1.483,0c-0.41-0.41-0.41-1.074,0-1.484l4.617-4.617
				C88.618,616.973,88.887,616.87,89.155,616.87z"/>
			<path fill="none" stroke="#FFFFFF" stroke-width="2" stroke-miterlimit="10" d="M79.921,607.216c0.269,0,0.537,0.103,0.741,0.308
				c0.41,0.409,0.41,1.074,0,1.483l-4.616,4.617c-0.41,0.41-1.074,0.41-1.484,0c-0.41-0.409-0.41-1.074,0-1.483l4.617-4.617
				C79.384,607.318,79.652,607.216,79.921,607.216z"/>
			<path fill="none" stroke="#FFFFFF" stroke-width="2" stroke-miterlimit="10" d="M70.687,598.401c0.269,0,0.537,0.103,0.742,0.308
				c0.409,0.409,0.409,1.074,0,1.483l-4.617,4.617c-0.41,0.41-1.074,0.41-1.484,0c-0.41-0.409-0.41-1.074,0-1.483l4.617-4.617
				C70.149,598.504,70.418,598.401,70.687,598.401z"/>
			<path fill="none" stroke="#FFFFFF" stroke-width="2" stroke-miterlimit="10" d="M61.032,588.747c0.269,0,0.537,0.103,0.742,0.308
				c0.41,0.41,0.41,1.074,0,1.484l-4.617,4.617c-0.41,0.409-1.074,0.409-1.483,0c-0.41-0.41-0.41-1.074,0-1.484l4.617-4.617
				C60.495,588.85,60.764,588.747,61.032,588.747z"/>
			<path fill="none" stroke="#FFFFFF" stroke-width="2" stroke-miterlimit="10" d="M51.379,579.094c0.269,0,0.536,0.103,0.741,0.307
				c0.41,0.41,0.41,1.074,0,1.484l-4.617,4.617c-0.409,0.41-1.073,0.41-1.483,0s-0.41-1.074,0-1.484l4.617-4.617
				C50.842,579.196,51.11,579.094,51.379,579.094z"/>
			<path fill="none" stroke="#FFFFFF" stroke-width="2" stroke-miterlimit="10" d="M41.725,569.439c0.269,0,0.537,0.103,0.742,0.308
				c0.409,0.409,0.409,1.074,0,1.483l-4.617,4.617c-0.41,0.41-1.074,0.41-1.484,0c-0.409-0.409-0.409-1.074,0-1.483l4.617-4.617
				C41.188,569.542,41.456,569.439,41.725,569.439z"/>
			<path fill="none" stroke="#FFFFFF" stroke-width="2" stroke-miterlimit="10" d="M31.229,556.23c0.282,0,0.564,0.108,0.78,0.323
				c0.431,0.431,0.431,1.129,0,1.56l-4.854,4.854c-0.431,0.431-1.129,0.431-1.56,0s-0.431-1.129,0-1.56l4.854-4.854
				C30.664,556.339,30.946,556.23,31.229,556.23z"/>
			<path fill="none" stroke="#FFFFFF" stroke-width="2" stroke-miterlimit="10" d="M21.522,546.525c0.282,0,0.564,0.107,0.78,0.322
				c0.431,0.431,0.431,1.13,0,1.561l-4.853,4.853c-0.432,0.431-1.129,0.431-1.561,0c-0.431-0.431-0.431-1.129,0-1.56l4.854-4.854
				C20.958,546.633,21.241,546.525,21.522,546.525z"/>
			<path fill="none" stroke="#FFFFFF" stroke-width="2" stroke-miterlimit="10" d="M126.581,645.342
				c0.269,0,0.537,0.103,0.742,0.308c0.41,0.409,0.41,1.074,0,1.483l-8.885,8.885c-0.409,0.41-1.073,0.41-1.483,0
				s-0.41-1.074,0-1.484l8.884-8.884C126.044,645.444,126.313,645.342,126.581,645.342z"/>
			<path fill="none" stroke="#FFFFFF" stroke-width="2" stroke-miterlimit="10" d="M116.927,636.107
				c0.269,0,0.537,0.103,0.742,0.308c0.41,0.41,0.41,1.074,0,1.483l-8.884,8.885c-0.41,0.41-1.074,0.41-1.484,0
				c-0.409-0.409-0.409-1.074,0-1.483l8.885-8.885C116.391,636.21,116.658,636.107,116.927,636.107z"/>
			<path fill="none" stroke="#FFFFFF" stroke-width="2" stroke-miterlimit="10" d="M107.273,626.873
				c0.269,0,0.536,0.103,0.741,0.308c0.41,0.41,0.41,1.074,0,1.484l-8.884,8.884c-0.41,0.41-1.074,0.41-1.483,0
				c-0.41-0.409-0.41-1.074,0-1.483l8.884-8.885C106.736,626.976,107.005,626.873,107.273,626.873z"/>
			<path fill="none" stroke="#FFFFFF" stroke-width="2" stroke-miterlimit="10" d="M98.039,617.22c0.269,0,0.537,0.103,0.742,0.308
				c0.409,0.409,0.409,1.074,0,1.483l-8.885,8.885c-0.409,0.409-1.073,0.409-1.483,0c-0.41-0.41-0.41-1.074,0-1.484l8.884-8.884
				C97.502,617.322,97.771,617.22,98.039,617.22z"/>
			<path fill="none" stroke="#FFFFFF" stroke-width="2" stroke-miterlimit="10" d="M88.805,607.565c0.269,0,0.537,0.103,0.742,0.308
				c0.41,0.41,0.41,1.074,0,1.483l-8.885,8.885c-0.409,0.41-1.073,0.41-1.483,0c-0.41-0.409-0.41-1.074,0-1.483l8.884-8.885
				C88.268,607.668,88.536,607.565,88.805,607.565z"/>
			<path fill="none" stroke="#FFFFFF" stroke-width="2" stroke-miterlimit="10" d="M79.57,597.912c0.269,0,0.537,0.102,0.742,0.307
				c0.41,0.41,0.41,1.074,0,1.484l-8.884,8.884c-0.41,0.41-1.074,0.41-1.484,0c-0.41-0.409-0.41-1.073,0-1.483l8.885-8.885
				C79.033,598.014,79.302,597.912,79.57,597.912z"/>
			<path fill="none" stroke="#FFFFFF" stroke-width="2" stroke-miterlimit="10" d="M69.917,588.678c0.268,0,0.537,0.103,0.741,0.308
				c0.41,0.409,0.41,1.073,0,1.483l-8.884,8.885c-0.41,0.409-1.074,0.409-1.483,0c-0.41-0.41-0.41-1.074,0-1.484l8.884-8.884
				C69.38,588.78,69.648,588.678,69.917,588.678z"/>
			<path fill="none" stroke="#FFFFFF" stroke-width="2" stroke-miterlimit="10" d="M60.683,579.023c0.269,0,0.537,0.103,0.742,0.308
				c0.409,0.409,0.409,1.074,0,1.483l-8.885,8.885c-0.41,0.41-1.074,0.41-1.483,0c-0.41-0.41-0.41-1.074,0-1.484l8.884-8.884
				C60.146,579.126,60.414,579.023,60.683,579.023z"/>
			<path fill="none" stroke="#FFFFFF" stroke-width="2" stroke-miterlimit="10" d="M51.028,570.209c0.269,0,0.537,0.103,0.742,0.308
				c0.41,0.409,0.41,1.074,0,1.483l-8.884,8.885c-0.41,0.41-1.074,0.41-1.484,0s-0.41-1.074,0-1.484l8.884-8.884
				C50.491,570.312,50.76,570.209,51.028,570.209z"/>
			<path fill="none" stroke="#FFFFFF" stroke-width="2" stroke-miterlimit="10" d="M41.375,560.975c0.269,0,0.536,0.103,0.741,0.308
				c0.41,0.41,0.41,1.074,0,1.483l-8.884,8.885c-0.41,0.41-1.074,0.41-1.483,0c-0.41-0.41-0.41-1.074,0-1.483l8.884-8.885
				C40.838,561.077,41.106,560.975,41.375,560.975z"/>
			<path fill="none" stroke="#FFFFFF" stroke-width="2" stroke-miterlimit="10" d="M31.302,547.334c0.282,0,0.564,0.107,0.78,0.323
				c0.431,0.431,0.431,1.129,0,1.56l-9.338,9.338c-0.431,0.431-1.129,0.431-1.56,0c-0.432-0.431-0.432-1.129,0-1.56l9.338-9.338
				C30.737,547.441,31.02,547.334,31.302,547.334z"/>
		</g>
	</g>
	<path fill-rule="evenodd" clip-rule="evenodd" fill="none" stroke="#FFFFFF" stroke-width="2" stroke-miterlimit="10" d="
		M168.268,48.398h163.327c3.406,0,6.161,3.025,6.161,6.711v31.152c0,3.686-2.755,6.664-6.161,6.664H168.268
		c-3.369,0-6.18-2.979-6.18-6.664V55.109C162.088,51.424,164.898,48.398,168.268,48.398L168.268,48.398z"/>
</g>
</svg>
