<?xml version="1.0" encoding="utf-8"?>
<!-- Generator: Adobe Illustrator 16.0.0, SVG Export Plug-In . SVG Version: 6.00 Build 0)  -->
<!DOCTYPE svg PUBLIC "-//W3C//DTD SVG 1.1//EN" "http://www.w3.org/Graphics/SVG/1.1/DTD/svg11.dtd">
<svg version="1.1" id="Layer_1" xmlns="http://www.w3.org/2000/svg" xmlns:xlink="http://www.w3.org/1999/xlink" x="0px" y="0px"
	 width="785.491px" height="481.42px" viewBox="0 0 785.491 481.42" enable-background="new 0 0 785.491 481.42"
	 xml:space="preserve">
<path fill="none" stroke="#FFFFFF" stroke-width="2" stroke-miterlimit="10" d="M679.002,269.961l-54.011,0.019v2l53.891,0.066
	c0.909,0.115,10.878,1.615,10.878,11.857l0.001,0.041c0.013,0.36,0.217,8.857-8.195,10.773h-29.244l-0.042,0.004
	c-0.106,0.008-10.571,0.992-10.601,12.716c-0.061,0.683-0.449,6.49,3.344,10.696c2.518,2.792,6.258,4.208,11.119,4.208h85.971
	c2.344,0,4.587,0.598,6.488,1.729c3.563,2.121,5.334,5.494,5.267,10.025l0.093,45.779h2.085l-0.093-45.764
	c0.099-6.625-3.363-10.092-6.285-11.832c-2.225-1.324-4.836-2.023-7.555-2.023h-85.971c-4.245,0-7.466-1.184-9.57-3.519
	c-3.336-3.699-2.818-9.09-2.813-9.144l0.006-0.107c0-4.163,1.462-7.223,4.346-9.094c2.015-1.307,4.019-1.561,4.304-1.591h29.381
	l0.11-0.024c9.956-2.182,9.952-12.218,9.94-12.883c-0.005-12.382-12.658-13.914-12.786-13.929L679.002,269.961z"/>
<path fill="none" stroke="#FFFFFF" stroke-width="2" stroke-miterlimit="10" d="M746.759,480.42h16.495
	c11.657,0,21.195-9.538,21.195-21.195V426.06h-58.887v33.165C725.563,470.882,735.101,480.42,746.759,480.42z"/>
<path fill="none" stroke="#FFFFFF" stroke-width="2" stroke-miterlimit="10" d="M758.938,379.876
	c14.031,0,25.553,11.413,25.553,25.444v19.164h-28.338v-7.671c3.108-0.441,5.303-2.972,5.303-6.016v-17.296
	c0-3.045-2.194-5.574-5.303-6.016v-7.61H758.938z"/>
<path fill="none" stroke="#FFFFFF" stroke-width="2" stroke-miterlimit="10" d="M751.075,379.876h2.885v7.664
	c-2.56,0.564-4.937,3.023-4.937,5.962v17.296c0,2.938,2.377,5.396,4.937,5.961v7.726h-28.338V405.32
	C725.622,391.289,737.044,379.876,751.075,379.876z"/>
<rect x="226.292" y="183.306" fill-rule="evenodd" clip-rule="evenodd" fill="none" stroke="#FFFFFF" stroke-width="2" stroke-miterlimit="10" width="322.623" height="14.981"/>
<path fill-rule="evenodd" clip-rule="evenodd" fill="none" stroke="#FFFFFF" stroke-width="2" stroke-miterlimit="10" d="M627.386,1
	H142.124c-22.242,0-29.109,13.967-24.815,30.472c-0.004-0.205,0.028-0.397,0.036-0.598c-0.042,1.115,0.047,2.246,0.352,3.401
	l35.119,132.565c5.307,20.131,10.068,20.757,36.251,20.717l405.737-0.04c21.07,0,31.338,0.04,35.51-20.167l27.354-133.075
	c0.104-0.506,0.145-1.011,0.185-1.517c0.004,0.012,0.008,0.024,0.008,0.036l1.328-11.274C661.062,5.332,639.755,1,627.386,1z
	 M117.558,29.108c-0.063,0.313-0.123,0.626-0.158,0.943C117.435,29.734,117.495,29.422,117.558,29.108z M118.61,26.024
	c-0.074,0.152-0.162,0.301-0.232,0.457C118.448,26.325,118.536,26.177,118.61,26.024z M118.011,27.46
	c-0.09,0.257-0.188,0.51-0.261,0.771C117.824,27.97,117.921,27.717,118.011,27.46z M137.819,14.481
	c0.731-0.064,1.466-0.101,2.197-0.101C139.285,14.381,138.551,14.417,137.819,14.481z M124.326,19.499
	c0.05-0.036,0.099-0.077,0.15-0.113C124.427,19.422,124.376,19.463,124.326,19.499z M125.918,18.432
	c0.104-0.064,0.203-0.129,0.31-0.192C126.121,18.303,126.022,18.367,125.918,18.432z M127.657,17.453
	c0.154-0.08,0.307-0.16,0.463-0.236C127.964,17.293,127.81,17.373,127.657,17.453z M129.522,16.579
	c0.204-0.089,0.406-0.169,0.613-0.253C129.929,16.41,129.727,16.49,129.522,16.579z M131.485,15.829
	c0.263-0.089,0.527-0.165,0.793-0.249C132.013,15.66,131.748,15.74,131.485,15.829z M133.535,15.223
	c0.331-0.084,0.663-0.152,0.993-0.225C134.198,15.07,133.866,15.139,133.535,15.223z M135.653,14.766
	c0.427-0.072,0.857-0.12,1.285-0.172C136.511,14.646,136.08,14.693,135.653,14.766z"/>
<path opacity="0.5" fill-rule="evenodd" clip-rule="evenodd" fill="none" stroke="#FFFFFF" stroke-width="2" stroke-miterlimit="10" d="
	M142.124,1h485.262c12.369,0,33.676,4.332,31.803,20.521l-1.328,11.274c-1.789-8.387-12.25-18.414-22.51-18.414H140.017
	c-11.158,0-22.826,7.725-22.708,17.091C113.015,14.967,119.882,1,142.124,1L142.124,1z"/>
<polygon opacity="0.8" fill-rule="evenodd" clip-rule="evenodd" fill="none" stroke="#FFFFFF" stroke-width="2" stroke-miterlimit="10" points="
	142.006,23.746 636.009,23.197 609.36,177.61 172.989,177.727 "/>
<g>
	
		<ellipse opacity="0.76" fill="none" stroke="#FFFFFF" stroke-width="2" stroke-miterlimit="10" cx="255.445" cy="84.657" rx="40.606" ry="26.915"/>
	
		<ellipse opacity="0.76" fill="none" stroke="#FFFFFF" stroke-width="2" stroke-miterlimit="10" cx="311.976" cy="84.657" rx="40.606" ry="26.915"/>
	
		<ellipse opacity="0.76" fill="none" stroke="#FFFFFF" stroke-width="2" stroke-miterlimit="10" cx="282.516" cy="117.378" rx="40.606" ry="26.916"/>
</g>
<g>
	<g>
		<path fill="none" stroke="#FFFFFF" stroke-width="2" stroke-miterlimit="10" d="M166.278,192.081h445.5
			c7.377,0,13.425,6.049,13.425,13.422v245.658c0,7.376-6.048,13.425-13.425,13.425h-445.5c-7.376,0-13.422-6.049-13.422-13.425
			V205.503C152.856,198.13,158.902,192.081,166.278,192.081L166.278,192.081z"/>
	</g>
</g>
<path opacity="0.26" fill-rule="evenodd" clip-rule="evenodd" fill="none" stroke="#FFFFFF" stroke-width="2" stroke-miterlimit="10" d="
	M314.417,457.127h149.186c2.302,0,4.167-1.865,4.167-4.167v-74.116c0-2.301-1.865-4.166-4.167-4.166H314.417
	c-2.301,0-4.166,1.865-4.166,4.166v74.116C310.251,455.262,312.116,457.127,314.417,457.127z"/>
<g id="Keyboard_4_">
	<path fill-rule="evenodd" clip-rule="evenodd" fill="none" stroke="#FFFFFF" stroke-width="2" stroke-miterlimit="10" d="
		M185.489,224.241h19.754c1.167,0,2.094,1.248,2.094,2.752v21.27c0,1.509-0.927,2.752-2.094,2.752h-19.754
		c-1.172,0-2.139-1.243-2.139-2.752v-21.27C183.351,225.489,184.317,224.241,185.489,224.241L185.489,224.241z"/>
	<path fill-rule="evenodd" clip-rule="evenodd" fill="none" stroke="#FFFFFF" stroke-width="2" stroke-miterlimit="10" d="
		M217.536,224.241h19.75c1.17,0,2.137,1.248,2.137,2.752v21.27c0,1.509-0.967,2.752-2.137,2.752h-19.75
		c-1.169,0-2.136-1.243-2.136-2.752v-21.27C215.4,225.489,216.367,224.241,217.536,224.241L217.536,224.241z"/>
	<path fill-rule="evenodd" clip-rule="evenodd" fill="none" stroke="#FFFFFF" stroke-width="2" stroke-miterlimit="10" d="
		M249.624,224.241h19.71c1.167,0,2.136,1.248,2.136,2.752v21.27c0,1.509-0.969,2.752-2.136,2.752h-19.71
		c-1.171,0-2.14-1.243-2.14-2.752v-21.27C247.484,225.489,248.453,224.241,249.624,224.241L249.624,224.241z"/>
	<path fill-rule="evenodd" clip-rule="evenodd" fill="none" stroke="#FFFFFF" stroke-width="2" stroke-miterlimit="10" d="
		M281.667,224.241h19.713c1.209,0,2.135,1.248,2.135,2.752v21.27c0,1.509-0.926,2.752-2.135,2.752h-19.713
		c-1.169,0-2.135-1.243-2.135-2.752v-21.27C279.532,225.489,280.498,224.241,281.667,224.241L281.667,224.241z"/>
	<path fill-rule="evenodd" clip-rule="evenodd" fill="none" stroke="#FFFFFF" stroke-width="2" stroke-miterlimit="10" d="
		M313.713,224.241h19.754c1.169,0,2.136,1.248,2.136,2.752v21.27c0,1.509-0.967,2.752-2.136,2.752h-19.754
		c-1.169,0-2.136-1.243-2.136-2.752v-21.27C311.577,225.489,312.544,224.241,313.713,224.241L313.713,224.241z"/>
	<path fill-rule="evenodd" clip-rule="evenodd" fill="none" stroke="#FFFFFF" stroke-width="2" stroke-miterlimit="10" d="
		M345.8,224.241h19.715c1.167,0,2.134,1.248,2.134,2.752v21.27c0,1.509-0.967,2.752-2.134,2.752H345.8
		c-1.168,0-2.135-1.243-2.135-2.752v-21.27C343.665,225.489,344.632,224.241,345.8,224.241L345.8,224.241z"/>
	<path fill-rule="evenodd" clip-rule="evenodd" fill="none" stroke="#FFFFFF" stroke-width="2" stroke-miterlimit="10" d="
		M377.849,224.241h19.709c1.211,0,2.134,1.248,2.134,2.752v21.27c0,1.509-0.923,2.752-2.134,2.752h-19.709
		c-1.17,0-2.137-1.243-2.137-2.752v-21.27C375.712,225.489,376.679,224.241,377.849,224.241L377.849,224.241z"/>
	<path fill-rule="evenodd" clip-rule="evenodd" fill="none" stroke="#FFFFFF" stroke-width="2" stroke-miterlimit="10" d="
		M409.892,224.241h19.754c1.167,0,2.134,1.248,2.134,2.752v21.27c0,1.509-0.967,2.752-2.134,2.752h-19.754
		c-1.167,0-2.134-1.243-2.134-2.752v-21.27C407.758,225.489,408.725,224.241,409.892,224.241L409.892,224.241z"/>
	<path fill-rule="evenodd" clip-rule="evenodd" fill="none" stroke="#FFFFFF" stroke-width="2" stroke-miterlimit="10" d="
		M441.983,224.241h19.709c1.168,0,2.135,1.248,2.135,2.752v21.27c0,1.509-0.967,2.752-2.135,2.752h-19.709
		c-1.215,0-2.143-1.243-2.143-2.752v-21.27C439.841,225.489,440.769,224.241,441.983,224.241L441.983,224.241z"/>
	<path fill-rule="evenodd" clip-rule="evenodd" fill="none" stroke="#FFFFFF" stroke-width="2" stroke-miterlimit="10" d="
		M474.026,224.241h19.714c1.208,0,2.138,1.248,2.138,2.752v21.27c0,1.509-0.93,2.752-2.138,2.752h-19.714
		c-1.171,0-2.138-1.243-2.138-2.752v-21.27C471.889,225.489,472.855,224.241,474.026,224.241L474.026,224.241z"/>
	<path fill-rule="evenodd" clip-rule="evenodd" fill="none" stroke="#FFFFFF" stroke-width="2" stroke-miterlimit="10" d="
		M506.07,224.241h19.758c1.167,0,2.13,1.248,2.13,2.752v21.27c0,1.509-0.963,2.752-2.13,2.752H506.07
		c-1.167,0-2.13-1.243-2.13-2.752v-21.27C503.94,225.489,504.903,224.241,506.07,224.241L506.07,224.241z"/>
	<path fill-rule="evenodd" clip-rule="evenodd" fill="none" stroke="#FFFFFF" stroke-width="2" stroke-miterlimit="10" d="
		M233.618,261.395h19.715c1.168,0,2.133,1.244,2.133,2.752v21.271c0,1.504-0.965,2.747-2.133,2.747h-19.715
		c-1.171,0-2.136-1.243-2.136-2.747v-21.271C231.482,262.639,232.447,261.395,233.618,261.395L233.618,261.395z"/>
	<path fill-rule="evenodd" clip-rule="evenodd" fill="none" stroke="#FFFFFF" stroke-width="2" stroke-miterlimit="10" d="
		M265.661,261.395h19.755c1.171,0,2.138,1.244,2.138,2.752v21.271c0,1.504-0.967,2.747-2.138,2.747h-19.755
		c-1.162,0-2.131-1.243-2.131-2.747v-21.271C263.53,262.639,264.499,261.395,265.661,261.395L265.661,261.395z"/>
	<path fill-rule="evenodd" clip-rule="evenodd" fill="none" stroke="#FFFFFF" stroke-width="2" stroke-miterlimit="10" d="
		M297.712,261.395h19.751c1.167,0,2.138,1.244,2.138,2.752v21.271c0,1.504-0.971,2.747-2.138,2.747h-19.751
		c-1.17,0-2.096-1.243-2.096-2.747v-21.271C295.616,262.639,296.542,261.395,297.712,261.395L297.712,261.395z"/>
	<path fill-rule="evenodd" clip-rule="evenodd" fill="none" stroke="#FFFFFF" stroke-width="2" stroke-miterlimit="10" d="
		M329.797,261.395h19.712c1.17,0,2.136,1.244,2.136,2.752v21.271c0,1.504-0.966,2.747-2.136,2.747h-19.712
		c-1.169,0-2.134-1.243-2.134-2.747v-21.271C327.663,262.639,328.628,261.395,329.797,261.395L329.797,261.395z"/>
	<path fill-rule="evenodd" clip-rule="evenodd" fill="none" stroke="#FFFFFF" stroke-width="2" stroke-miterlimit="10" d="
		M361.845,261.395h19.752c1.167,0,2.098,1.244,2.098,2.752v21.271c0,1.504-0.931,2.747-2.098,2.747h-19.752
		c-1.17,0-2.137-1.243-2.137-2.747v-21.271C359.708,262.639,360.675,261.395,361.845,261.395L361.845,261.395z"/>
	<path fill-rule="evenodd" clip-rule="evenodd" fill="none" stroke="#FFFFFF" stroke-width="2" stroke-miterlimit="10" d="
		M393.892,261.395h19.75c1.172,0,2.138,1.244,2.138,2.752v21.271c0,1.504-0.966,2.747-2.138,2.747h-19.75
		c-1.171,0-2.143-1.243-2.143-2.747v-21.271C391.749,262.639,392.721,261.395,393.892,261.395L393.892,261.395z"/>
	<path fill-rule="evenodd" clip-rule="evenodd" fill="none" stroke="#FFFFFF" stroke-width="2" stroke-miterlimit="10" d="
		M425.979,261.395h19.71c1.167,0,2.134,1.244,2.134,2.752v21.271c0,1.504-0.967,2.747-2.134,2.747h-19.71
		c-1.172,0-2.142-1.243-2.142-2.747v-21.271C423.838,262.639,424.808,261.395,425.979,261.395L425.979,261.395z"/>
	<path fill-rule="evenodd" clip-rule="evenodd" fill="none" stroke="#FFFFFF" stroke-width="2" stroke-miterlimit="10" d="
		M458.019,261.395h19.758c1.164,0,2.094,1.244,2.094,2.752v21.271c0,1.504-0.93,2.747-2.094,2.747h-19.758
		c-1.167,0-2.134-1.243-2.134-2.747v-21.271C455.885,262.639,456.852,261.395,458.019,261.395L458.019,261.395z"/>
	<path fill-rule="evenodd" clip-rule="evenodd" fill="none" stroke="#FFFFFF" stroke-width="2" stroke-miterlimit="10" d="
		M490.066,261.395h19.754c1.167,0,2.13,1.244,2.13,2.752v21.271c0,1.504-0.963,2.747-2.13,2.747h-19.754
		c-1.167,0-2.134-1.243-2.134-2.747v-21.271C487.933,262.639,488.899,261.395,490.066,261.395L490.066,261.395z"/>
	<path fill-rule="evenodd" clip-rule="evenodd" fill="none" stroke="#FFFFFF" stroke-width="2" stroke-miterlimit="10" d="
		M522.153,261.395h19.719c1.166,0,2.129,1.244,2.129,2.752v21.271c0,1.504-0.963,2.747-2.129,2.747h-19.719
		c-1.171,0-2.141-1.243-2.141-2.747v-21.271C520.013,262.639,520.982,261.395,522.153,261.395L522.153,261.395z"/>
	<path fill-rule="evenodd" clip-rule="evenodd" fill="none" stroke="#FFFFFF" stroke-width="2" stroke-miterlimit="10" d="
		M538.161,224.241h19.707c1.171,0,2.141,1.248,2.141,2.752v21.27c0,1.509-0.97,2.752-2.141,2.752h-19.707
		c-1.207,0-2.138-1.243-2.138-2.752v-21.27C536.023,225.489,536.954,224.241,538.161,224.241L538.161,224.241z"/>
	<path fill-rule="evenodd" clip-rule="evenodd" fill="none" stroke="#FFFFFF" stroke-width="2" stroke-miterlimit="10" d="
		M570.205,224.241h19.71c1.171,0,2.134,1.248,2.134,2.752v21.27c0,1.509-0.963,2.752-2.134,2.752h-19.71
		c-1.171,0-2.138-1.243-2.138-2.752v-21.27C568.067,225.489,569.034,224.241,570.205,224.241L570.205,224.241z"/>
	<path fill-rule="evenodd" clip-rule="evenodd" fill="none" stroke="#FFFFFF" stroke-width="2" stroke-miterlimit="10" d="
		M554.728,261.395h35.188c1.171,0,2.134,1.244,2.134,2.752v21.271c0,1.504-0.963,2.747-2.134,2.747h-35.188
		c-1.172,0-2.146-1.243-2.146-2.747v-21.271C552.581,262.639,553.556,261.395,554.728,261.395L554.728,261.395z"/>
	<path fill-rule="evenodd" clip-rule="evenodd" fill="none" stroke="#FFFFFF" stroke-width="2" stroke-miterlimit="10" d="
		M185.81,261.395h36.523c1.168,0,2.133,1.244,2.133,2.752v21.271c0,1.504-0.965,2.747-2.133,2.747H185.81
		c-1.209,0-2.135-1.243-2.135-2.747v-21.271C183.675,262.639,184.601,261.395,185.81,261.395L185.81,261.395z"/>
	<path fill-rule="evenodd" clip-rule="evenodd" fill="none" stroke="#FFFFFF" stroke-width="2" stroke-miterlimit="10" d="
		M185.81,298.544h43.617c1.17,0,2.137,1.244,2.137,2.748v21.278c0,1.504-0.967,2.747-2.137,2.747H185.81
		c-1.209,0-2.135-1.243-2.135-2.747v-21.278C183.675,299.788,184.601,298.544,185.81,298.544L185.81,298.544z"/>
	<path fill-rule="evenodd" clip-rule="evenodd" fill="none" stroke="#FFFFFF" stroke-width="2" stroke-miterlimit="10" d="
		M185.81,335.698h19.672c1.172,0,2.139,1.243,2.139,2.747v21.274c0,1.504-0.967,2.751-2.139,2.751H185.81
		c-1.209,0-2.135-1.247-2.135-2.751v-21.274C183.675,336.941,184.601,335.698,185.81,335.698L185.81,335.698z"/>
	<path fill-rule="evenodd" clip-rule="evenodd" fill="none" stroke="#FFFFFF" stroke-width="2" stroke-miterlimit="10" d="
		M217.817,335.698h19.67c1.169,0,2.14,1.243,2.14,2.747v21.274c0,1.504-0.971,2.751-2.14,2.751h-19.67
		c-1.168,0-2.136-1.247-2.136-2.751v-21.274C215.682,336.941,216.649,335.698,217.817,335.698L217.817,335.698z"/>
	<path fill-rule="evenodd" clip-rule="evenodd" fill="none" stroke="#FFFFFF" stroke-width="2" stroke-miterlimit="10" d="
		M249.823,335.698h19.671c1.212,0,2.136,1.243,2.136,2.747v21.274c0,1.504-0.924,2.751-2.136,2.751h-19.671
		c-1.168,0-2.135-1.247-2.135-2.751v-21.274C247.688,336.941,248.655,335.698,249.823,335.698L249.823,335.698z"/>
	<path fill-rule="evenodd" clip-rule="evenodd" fill="none" stroke="#FFFFFF" stroke-width="2" stroke-miterlimit="10" d="
		M281.83,335.698h204.972c1.207,0,2.142,1.243,2.142,2.747v21.274c0,1.504-0.935,2.751-2.142,2.751H281.83
		c-1.169,0-2.136-1.247-2.136-2.751v-21.274C279.694,336.941,280.661,335.698,281.83,335.698L281.83,335.698z"/>
	<path fill-rule="evenodd" clip-rule="evenodd" fill="none" stroke="#FFFFFF" stroke-width="2" stroke-miterlimit="10" d="
		M241.277,298.909h19.71c1.173,0,2.138,1.244,2.138,2.748v21.273c0,1.505-0.965,2.748-2.138,2.748h-19.71
		c-1.171,0-2.136-1.243-2.136-2.748v-21.273C239.142,300.153,240.106,298.909,241.277,298.909L241.277,298.909z"/>
	<path fill-rule="evenodd" clip-rule="evenodd" fill="none" stroke="#FFFFFF" stroke-width="2" stroke-miterlimit="10" d="
		M273.325,298.909h19.75c1.169,0,2.135,1.244,2.135,2.748v21.273c0,1.505-0.966,2.748-2.135,2.748h-19.75
		c-1.17,0-2.137-1.243-2.137-2.748v-21.273C271.188,300.153,272.155,298.909,273.325,298.909L273.325,298.909z"/>
	<path fill-rule="evenodd" clip-rule="evenodd" fill="none" stroke="#FFFFFF" stroke-width="2" stroke-miterlimit="10" d="
		M305.37,298.909h19.752c1.17,0,2.138,1.244,2.138,2.748v21.273c0,1.505-0.968,2.748-2.138,2.748H305.37
		c-1.169,0-2.096-1.243-2.096-2.748v-21.273C303.274,300.153,304.201,298.909,305.37,298.909L305.37,298.909z"/>
	<path fill-rule="evenodd" clip-rule="evenodd" fill="none" stroke="#FFFFFF" stroke-width="2" stroke-miterlimit="10" d="
		M337.456,298.909h19.714c1.167,0,2.134,1.244,2.134,2.748v21.273c0,1.505-0.967,2.748-2.134,2.748h-19.714
		c-1.17,0-2.135-1.243-2.135-2.748v-21.273C335.321,300.153,336.286,298.909,337.456,298.909L337.456,298.909z"/>
	<path fill-rule="evenodd" clip-rule="evenodd" fill="none" stroke="#FFFFFF" stroke-width="2" stroke-miterlimit="10" d="
		M369.503,298.909h19.752c1.172,0,2.094,1.244,2.094,2.748v21.273c0,1.505-0.922,2.748-2.094,2.748h-19.752
		c-1.166,0-2.135-1.243-2.135-2.748v-21.273C367.368,300.153,368.337,298.909,369.503,298.909L369.503,298.909z"/>
	<path fill-rule="evenodd" clip-rule="evenodd" fill="none" stroke="#FFFFFF" stroke-width="2" stroke-miterlimit="10" d="
		M401.553,298.909h19.746c1.167,0,2.138,1.244,2.138,2.748v21.273c0,1.505-0.971,2.748-2.138,2.748h-19.746
		c-1.171,0-2.142-1.243-2.142-2.748v-21.273C399.411,300.153,400.382,298.909,401.553,298.909L401.553,298.909z"/>
	<path fill-rule="evenodd" clip-rule="evenodd" fill="none" stroke="#FFFFFF" stroke-width="2" stroke-miterlimit="10" d="
		M433.632,298.909h19.719c1.162,0,2.133,1.244,2.133,2.748v21.273c0,1.505-0.971,2.748-2.133,2.748h-19.719
		c-1.171,0-2.133-1.243-2.133-2.748v-21.273C431.499,300.153,432.461,298.909,433.632,298.909L433.632,298.909z"/>
	<path fill-rule="evenodd" clip-rule="evenodd" fill="none" stroke="#FFFFFF" stroke-width="2" stroke-miterlimit="10" d="
		M465.68,298.909h19.75c1.171,0,2.102,1.244,2.102,2.748v21.273c0,1.505-0.931,2.748-2.102,2.748h-19.75
		c-1.171,0-2.134-1.243-2.134-2.748v-21.273C463.546,300.153,464.509,298.909,465.68,298.909L465.68,298.909z"/>
	<path fill-rule="evenodd" clip-rule="evenodd" fill="none" stroke="#FFFFFF" stroke-width="2" stroke-miterlimit="10" d="
		M497.728,298.909h36.72c1.167,0,2.142,1.244,2.142,2.748v21.273c0,1.505-0.975,2.748-2.142,2.748h-36.72
		c-1.172,0-2.135-1.243-2.135-2.748v-21.273C495.593,300.153,496.556,298.909,497.728,298.909L497.728,298.909z"/>
	<path fill-rule="evenodd" clip-rule="evenodd" fill="none" stroke="#FFFFFF" stroke-width="2" stroke-miterlimit="10" d="
		M546.052,298.544h43.662c1.168,0,2.139,1.244,2.139,2.748v21.278c0,1.504-0.971,2.747-2.139,2.747h-43.662
		c-1.164,0-2.131-1.243-2.131-2.747v-21.278C543.921,299.788,544.888,298.544,546.052,298.544L546.052,298.544z"/>
	<path fill-rule="evenodd" clip-rule="evenodd" fill="none" stroke="#FFFFFF" stroke-width="2" stroke-miterlimit="10" d="
		M549.974,335.698h16.445c0.4,0,0.766,0.417,0.766,0.926v7.372c0,0.518-0.365,0.935-0.766,0.935h-16.445
		c-0.404,0-0.729-0.417-0.729-0.935v-7.372C549.244,336.115,549.569,335.698,549.974,335.698L549.974,335.698z"/>
	<path fill-rule="evenodd" clip-rule="evenodd" fill="none" stroke="#FFFFFF" stroke-width="2" stroke-miterlimit="10" d="
		M549.974,351.726h16.445c0.4,0,0.766,0.417,0.766,0.938v7.316c0,0.517-0.365,0.931-0.766,0.931h-16.445
		c-0.404,0-0.729-0.414-0.729-0.931v-7.316C549.244,352.143,549.569,351.726,549.974,351.726L549.974,351.726z"/>
	<path fill-rule="evenodd" clip-rule="evenodd" fill="none" stroke="#FFFFFF" stroke-width="2" stroke-miterlimit="10" d="
		M525.579,351.726h16.449c0.405,0,0.766,0.417,0.766,0.938v7.316c0,0.517-0.36,0.931-0.766,0.931h-16.449
		c-0.4,0-0.723-0.414-0.723-0.931v-7.316C524.856,352.143,525.179,351.726,525.579,351.726L525.579,351.726z"/>
	<path fill-rule="evenodd" clip-rule="evenodd" fill="none" stroke="#FFFFFF" stroke-width="2" stroke-miterlimit="10" d="
		M574.316,351.726h16.444c0.406,0,0.727,0.417,0.727,0.938v7.316c0,0.517-0.32,0.931-0.727,0.931h-16.444
		c-0.405,0-0.767-0.414-0.767-0.931v-7.316C573.55,352.143,573.911,351.726,574.316,351.726L574.316,351.726z"/>
	<path fill-rule="evenodd" clip-rule="evenodd" fill="none" stroke="#FFFFFF" stroke-width="2" stroke-miterlimit="10" d="
		M496.957,335.698h19.758c1.172,0,2.138,1.243,2.138,2.747v21.274c0,1.504-0.966,2.751-2.138,2.751h-19.758
		c-1.163,0-2.13-1.247-2.13-2.751v-21.274C494.827,336.941,495.794,335.698,496.957,335.698L496.957,335.698z"/>
</g>
<g>
	<g>
		<path fill="none" stroke="#FFFFFF" stroke-width="2" stroke-miterlimit="10" d="M93.587,390.007
			c21.459-19.111,23.362-52.003,4.249-73.463c-19.112-21.456-52.003-23.361-73.462-4.246c-19.712,17.556-22.869,46.715-8.45,67.981
			c-0.358,0.22-0.709,0.46-1.032,0.75L3.435,391.229c-2.998,2.673-3.264,7.272-0.593,10.274c2.675,3.001,7.274,3.268,10.272,0.595
			l11.457-10.203c0.347-0.308,0.646-0.646,0.916-0.994C44.952,407.335,74.011,407.444,93.587,390.007z"/>
		<g>
			<path fill="none" stroke="#FFFFFF" stroke-width="2" stroke-miterlimit="10" d="M87.568,383.249
				c-17.728,15.789-44.896,14.219-60.687-3.509c-15.789-17.727-14.217-44.896,3.51-60.688c17.728-15.785,44.898-14.215,60.688,3.513
				C106.867,340.291,105.295,367.461,87.568,383.249z"/>
		</g>
		<g>
			<path fill="none" stroke="#FFFFFF" stroke-width="2" stroke-miterlimit="10" d="M75.03,369.174
				c-9.953,8.862-25.205,7.981-34.072-1.972c-8.861-9.952-7.979-25.209,1.972-34.071c9.952-8.861,25.205-7.981,34.069,1.972
				C85.865,345.055,84.98,360.308,75.03,369.174z"/>
		</g>
		<path opacity="0.2" fill="none" stroke="#FFFFFF" stroke-width="2" stroke-miterlimit="10" d="M96.103,329.48
			c-1.418-2.421-3.086-4.742-5.023-6.916c-15.789-17.728-42.96-19.298-60.688-3.513c-2.834,2.529-5.207,5.364-7.211,8.384
			C39.063,323.765,66.624,320.265,96.103,329.48z"/>
	</g>
</g>
<g>
	<path fill="none" stroke="#FFFFFF" stroke-width="2" stroke-miterlimit="10" d="M485.628,96.059
		c0.404-32.569,27.135-58.644,59.704-58.239s58.644,27.134,58.239,59.703s-27.134,58.644-59.703,58.239
		C511.3,155.358,485.225,128.628,485.628,96.059 M484.215,96.041c-0.051,4.097,0.312,8.195,1.075,12.184
		c0.746,3.888,1.883,7.717,3.379,11.381c1.469,3.597,3.299,7.071,5.44,10.327c2.12,3.224,4.563,6.261,7.262,9.027
		c2.698,2.766,5.675,5.283,8.845,7.483c3.201,2.222,6.629,4.138,10.188,5.695c3.626,1.587,7.425,2.818,11.294,3.659
		c3.968,0.864,8.057,1.327,12.152,1.378c4.097,0.052,8.195-0.311,12.184-1.075c3.888-0.745,7.717-1.882,11.381-3.379
		c3.598-1.469,7.072-3.299,10.327-5.44c3.224-2.12,6.261-4.563,9.027-7.262s5.284-5.674,7.483-8.845
		c2.221-3.201,4.137-6.629,5.695-10.188c1.587-3.626,2.818-7.426,3.66-11.293c0.863-3.968,1.326-8.058,1.377-12.153
		s-0.311-8.195-1.075-12.184c-0.745-3.888-1.882-7.717-3.378-11.381c-1.47-3.597-3.301-7.071-5.441-10.327
		c-2.12-3.224-4.563-6.261-7.262-9.027c-2.698-2.766-5.674-5.284-8.844-7.483c-3.201-2.221-6.63-4.137-10.189-5.695
		c-3.625-1.587-7.426-2.818-11.293-3.659c-3.969-0.864-8.057-1.327-12.153-1.378s-8.195,0.311-12.184,1.075
		c-3.888,0.745-7.716,1.882-11.38,3.379c-3.598,1.469-7.072,3.3-10.328,5.44c-3.224,2.12-6.261,4.563-9.027,7.262
		c-2.766,2.698-5.283,5.674-7.483,8.845c-2.221,3.201-4.137,6.629-5.694,10.188c-1.588,3.626-2.818,7.426-3.66,11.293
		C484.729,87.856,484.266,91.945,484.215,96.041L484.215,96.041z"/>
</g>
<polygon fill="none" stroke="#FFFFFF" stroke-width="2" stroke-miterlimit="10" points="495.847,95.531 544.963,71.303 
	557.423,83.219 567.809,85.426 567.684,95.499 "/>
<polygon fill="none" stroke="#FFFFFF" stroke-width="2" stroke-miterlimit="10" points="495.874,95.56 544.778,119.849 
	557.29,107.987 567.511,105.827 567.684,95.499 "/>
<circle fill="none" stroke="#FFFFFF" stroke-width="2" stroke-miterlimit="10" cx="537.198" cy="95.42" r="5.383"/>
<rect x="432.112" y="94.715" transform="matrix(0.0124 -0.9999 0.9999 0.0124 383.129 579.2509)" fill="none" stroke="#FFFFFF" stroke-width="2" stroke-miterlimit="10" width="105.394" height="1.904"/>
<g>
	
		<rect x="480.295" y="90.792" transform="matrix(0.9999 0.0126 -0.0126 0.9999 1.2442 -6.1265)" fill="none" stroke="#FFFFFF" stroke-width="2" stroke-miterlimit="10" width="9.576" height="9.06"/>
	<path fill="none" stroke="#FFFFFF" stroke-width="2" stroke-miterlimit="10" d="M490.671,100.792l-11.313-0.144l0.137-10.797
		l11.313,0.144L490.671,100.792z M481.118,98.933l7.836,0.1l0.094-7.321l-7.837-0.1L481.118,98.933z"/>
</g>
<g>
	
		<rect x="541.308" y="32.728" transform="matrix(0.9999 0.0127 -0.0127 0.9999 0.5193 -6.9591)" fill="none" stroke="#FFFFFF" stroke-width="2" stroke-miterlimit="10" width="9.575" height="9.059"/>
	<path fill="none" stroke="#FFFFFF" stroke-width="2" stroke-miterlimit="10" d="M551.685,42.728l-11.313-0.144l0.138-10.797
		l11.313,0.144L551.685,42.728z M542.132,40.868l7.836,0.1l0.094-7.321l-7.838-0.1L542.132,40.868z"/>
</g>
<g>
	
		<rect x="540.485" y="151.874" transform="matrix(0.9999 0.0127 -0.0127 0.9999 2.0289 -6.9058)" fill="none" stroke="#FFFFFF" stroke-width="2" stroke-miterlimit="10" width="9.699" height="9.177"/>
	<path fill="none" stroke="#FFFFFF" stroke-width="2" stroke-miterlimit="10" d="M550.995,162.004l-11.459-0.146l0.139-10.938
		l11.459,0.146L550.995,162.004z M541.319,160.12l7.938,0.101l0.094-7.416l-7.938-0.101L541.319,160.12z"/>
</g>
<rect x="634.656" y="19.278" transform="matrix(0.0118 -0.9999 0.9999 0.0118 545.2739 743.8918)" fill="none" stroke="#FFFFFF" stroke-width="2" stroke-miterlimit="10" width="28.692" height="153.584"/>
<rect x="641.914" y="12.106" transform="matrix(0.0118 -0.9999 0.9999 0.0118 552.5069 736.8854)" fill="none" stroke="#FFFFFF" stroke-width="2" stroke-miterlimit="10" width="14.346" height="153.584"/>
<g id="Light_1_">
	<polygon opacity="0.5" fill="none" stroke="#FFFFFF" stroke-width="2" stroke-miterlimit="10" points="443.56,23.217 
		339.491,23.197 230.399,177.694 303.274,177.658 	"/>
	<polygon opacity="0.5" fill="none" stroke="#FFFFFF" stroke-width="2" stroke-miterlimit="10" points="495.145,23.35 
		359.415,177.658 374.005,177.658 545,23.233 	"/>
</g>
<polygon opacity="0.3" fill="none" stroke="#FFFFFF" stroke-width="2" stroke-miterlimit="10" points="153.178,31.659 
	183.377,31.659 194.992,161.749 176.407,161.749 "/>
</svg>
