<?xml version="1.0" encoding="utf-8"?>
<!-- Generator: Adobe Illustrator 16.0.0, SVG Export Plug-In . SVG Version: 6.00 Build 0)  -->
<!DOCTYPE svg PUBLIC "-//W3C//DTD SVG 1.1//EN" "http://www.w3.org/Graphics/SVG/1.1/DTD/svg11.dtd">
<svg version="1.1" id="Layer_1" xmlns="http://www.w3.org/2000/svg" xmlns:xlink="http://www.w3.org/1999/xlink" x="0px" y="0px"
	 width="252.335px" height="256px" viewBox="0 0 252.335 256" enable-background="new 0 0 252.335 256" xml:space="preserve">
<path fill="#FFFFFF" stroke="#000000" stroke-width="5.0367" stroke-miterlimit="10" d="M195.379,188.959"/>
<g>
	<rect x="145" y="166" fill="#FFFFFF" width="99" height="7"/>
	<polygon fill="#FFFFFF" points="221.239,201.496 216.446,196.88 243.014,169.292 216.49,142.767 221.195,138.062 252.335,169.204 	
		"/>
</g>
<polygon fill="#FFFFFF" points="194,256 0,256 0,0 138.486,0 194,51.49 194,153 187,153 187,54.544 135.74,7 7,7 7,249 187,249 
	187,184 194,184 "/>
<rect x="21" y="23" fill="#FFFFFF" width="97" height="7"/>
<rect x="21" y="56" fill="#FFFFFF" width="84" height="7"/>
<rect x="21" y="166" fill="#FFFFFF" width="64" height="7"/>
<rect x="21" y="182" fill="#FFFFFF" width="47" height="7"/>
<rect x="21" y="199" fill="#FFFFFF" width="40" height="7"/>
<rect x="21" y="76" fill="#FFFFFF" width="84" height="7"/>
<rect x="21" y="96" fill="#FFFFFF" width="84" height="7"/>
<rect x="21" y="116" fill="#FFFFFF" width="84" height="7"/>
<polygon fill="#FFFFFF" points="186,54 134,54 134,5 141,5 141,47 186,47 "/>
</svg>
