<?xml version="1.0" encoding="utf-8"?>
<!-- Generator: Adobe Illustrator 16.0.0, SVG Export Plug-In . SVG Version: 6.00 Build 0)  -->
<!DOCTYPE svg PUBLIC "-//W3C//DTD SVG 1.1//EN" "http://www.w3.org/Graphics/SVG/1.1/DTD/svg11.dtd">
<svg version="1.1" id="Layer_1" xmlns="http://www.w3.org/2000/svg" xmlns:xlink="http://www.w3.org/1999/xlink" x="0px" y="0px"
	 width="289.981px" height="186.469px" viewBox="0 0 289.981 186.469" enable-background="new 0 0 289.981 186.469"
	 xml:space="preserve">
<path fill="#FFFFFF" d="M11.921,83.724C5.348,83.724,0,78.376,0,71.803c0-6.574,5.348-11.921,11.921-11.921
	c6.573,0,11.921,5.348,11.921,11.921C23.842,78.376,18.495,83.724,11.921,83.724z M11.921,66.535c-2.905,0-5.268,2.363-5.268,5.268
	c0,2.904,2.363,5.268,5.268,5.268c2.904,0,5.268-2.363,5.268-5.268C17.189,68.898,14.826,66.535,11.921,66.535z"/>
<path fill="#FFFFFF" d="M278.06,23.843c-6.573,0-11.922-5.348-11.922-11.921S271.486,0,278.06,0s11.922,5.348,11.922,11.921
	S284.633,23.843,278.06,23.843z M278.06,6.653c-2.904,0-5.268,2.363-5.268,5.268s2.363,5.268,5.268,5.268s5.268-2.363,5.268-5.268
	S280.964,6.653,278.06,6.653z"/>
<path fill="#FFFFFF" d="M241.466,90.377c-6.573,0-11.922-5.348-11.922-11.921s5.349-11.921,11.922-11.921
	s11.922,5.348,11.922,11.921S248.039,90.377,241.466,90.377z M241.466,73.188c-2.904,0-5.268,2.363-5.268,5.268
	s2.363,5.268,5.268,5.268s5.268-2.363,5.268-5.268S244.37,73.188,241.466,73.188z"/>
<polygon fill="#FFFFFF" points="68.495,140.781 13.929,81.373 18.829,76.872 68.457,130.903 89.573,107.551 94.508,112.014 "/>
<rect x="257.787" y="19.563" transform="matrix(0.8985 0.439 -0.439 0.8985 47.6019 -109.7444)" fill="#FFFFFF" width="6.654" height="56.999"/>
<g>
	<path fill="#FFFFFF" d="M129.505,117.289c-24.541,0-44.506-19.965-44.506-44.506c0-24.54,19.965-44.505,44.506-44.505
		c24.541,0,44.505,19.965,44.505,44.505C174.011,97.323,154.046,117.289,129.505,117.289z M129.505,34.931
		c-20.872,0-37.853,16.98-37.853,37.852c0,20.872,16.981,37.853,37.853,37.853c20.872,0,37.851-16.981,37.851-37.853
		C167.356,51.911,150.377,34.931,129.505,34.931z"/>
	
		<rect x="121.344" y="146.249" transform="matrix(0.3846 0.9231 -0.9231 0.3846 236.4909 -55.5742)" fill="#FFFFFF" width="77.162" height="6.654"/>
</g>
<path fill="#FFFFFF" stroke="#000000" stroke-width="6.6535" stroke-miterlimit="10" d="M96.435,104.388"/>
<rect x="182.603" y="72.984" transform="matrix(0.9964 0.0852 -0.0852 0.9964 7.2579 -17.4277)" fill="#FFFFFF" width="50.371" height="6.653"/>
<g>
	<path fill="#FFFFFF" d="M128.357,82.07c-7.496,0-13.595-6.099-13.595-13.595s6.099-13.594,13.595-13.594
		c7.496,0,13.594,6.098,13.594,13.594S135.853,82.07,128.357,82.07z M128.357,64.881c-1.982,0-3.595,1.612-3.595,3.594
		s1.613,3.595,3.595,3.595s3.594-1.613,3.594-3.595S130.339,64.881,128.357,64.881z"/>
	
		<rect x="109.267" y="73.134" transform="matrix(0.7474 0.6643 -0.6643 0.7474 84.8812 -54.6138)" fill="#FFFFFF" width="10" height="22.386"/>
	
		<rect x="136.898" y="65.838" transform="matrix(0.9961 0.0886 -0.0886 0.9961 6.859 -12.8179)" fill="#FFFFFF" width="21.775" height="10"/>
</g>
</svg>
