<?xml version="1.0" encoding="utf-8"?>
<!-- Generator: Adobe Illustrator 16.0.0, SVG Export Plug-In . SVG Version: 6.00 Build 0)  -->
<!DOCTYPE svg PUBLIC "-//W3C//DTD SVG 1.1//EN" "http://www.w3.org/Graphics/SVG/1.1/DTD/svg11.dtd">
<svg version="1.1" id="Layer_1" xmlns="http://www.w3.org/2000/svg" xmlns:xlink="http://www.w3.org/1999/xlink" x="0px" y="0px"
	 width="264px" height="202.553px" viewBox="0 0 264 202.553" enable-background="new 0 0 264 202.553" xml:space="preserve">
<rect fill="#FFFFFF" width="7" height="180"/>
<rect x="10" fill="#FFFFFF" width="7" height="180"/>
<rect x="23" fill="#FFFFFF" width="7" height="180"/>
<rect x="36" fill="#FFFFFF" width="7" height="180"/>
<rect x="50" fill="#FFFFFF" width="7" height="180"/>
<rect x="63" fill="#FFFFFF" width="7" height="180"/>
<rect x="83" fill="#FFFFFF" width="7" height="180"/>
<rect x="93" fill="#FFFFFF" width="7" height="180"/>
<rect x="103" fill="#FFFFFF" width="7" height="180"/>
<rect x="116" fill="#FFFFFF" width="7" height="180"/>
<rect x="126" fill="#FFFFFF" width="7" height="180"/>
<rect x="143" fill="#FFFFFF" width="7" height="180"/>
<polygon fill="#FFFFFF" points="163,0 156,0 156,180 163,180 163,156.879 163,88.57 "/>
<path fill="#FFFFFF" d="M176,0h-7v88.606c1.969-0.077,4.332-0.246,7-0.585V0z"/>
<path fill="#FFFFFF" d="M190,0h-7v86.817c2.246-0.487,4.591-1.093,7-1.859V0z"/>
<path fill="#FFFFFF" d="M204,0h-7v82.317c2.335-1.024,4.68-2.216,7-3.591V0z"/>
<path fill="#FFFFFF" d="M214,0h-7v76.828c2.396-1.614,4.744-3.436,7-5.513V0z"/>
<path fill="#FFFFFF" d="M226,0h-7v71.779c1.646,1.375,4.002,3.18,7,5.097V0z"/>
<path fill="#FFFFFF" d="M236,0h-7v78.694c2.098,1.206,4.432,2.415,7,3.556V0z"/>
<path fill="#FFFFFF" d="M246,0h-7v83.5c2.191,0.862,4.525,1.659,7,2.358V0z"/>
<path fill="#FFFFFF" d="M256,0h-7v86.642c2.231,0.529,4.569,0.965,7,1.297V0z"/>
<g>
	<path fill="#FFFFFF" d="M216.98,202.553l-1.458-0.604C213.663,201.177,170,182.756,170,155.765V95.596l3.788,0.313
		c0.003,0,0.856,0.067,2.32,0.067c7.173,0,25.284-1.461,38.52-15l2.792-2.855l2.465,3.142c0.021,0.025,3.007,3.718,9.147,7.352
		c8.221,4.865,17.9,7.331,28.77,7.331c0.844,0,1.7-0.015,2.573-0.046L264,95.77l-0.02,60.367
		c-0.108,1.01-3.129,24.981-45.581,45.723L216.98,202.553z M177,102.969v52.796c0,19.966,32.503,35.797,39.775,39.088
		c35.581-17.848,39.891-37.473,40.225-39.348v-52.563c-21.949-0.226-34.82-9.709-39.987-14.571
		C202.812,101.006,185.082,102.85,177,102.969z"/>
	<polygon fill="#FFFFFF" points="214.226,169.104 187.315,145.556 191.696,140.549 213.478,159.609 244.563,122.306 
		249.675,126.565 	"/>
</g>
</svg>
